<?xml version="1.0" encoding="utf-8"?>
<!-- Generator: Adobe Illustrator 17.0.0, SVG Export Plug-In . SVG Version: 6.00 Build 0)  -->
<!DOCTYPE svg PUBLIC "-//W3C//DTD SVG 1.1//EN" "http://www.w3.org/Graphics/SVG/1.1/DTD/svg11.dtd">
<svg version="1.1" id="graphics" xmlns="http://www.w3.org/2000/svg" xmlns:xlink="http://www.w3.org/1999/xlink" x="0px" y="0px"
	 width="468.353px" height="705.556px" viewBox="0 0 468.353 705.556" style="enable-background:new 0 0 468.353 705.556;"
	 xml:space="preserve">
<style type="text/css">
	.st0{fill:url(#digital_2_);}
</style>
<linearGradient id="digital_2_" gradientUnits="userSpaceOnUse" x1="14.4918" y1="141.6822" x2="406.3588" y2="533.5493">
	<stop  offset="0" style="stop-color:#FFD53F">
    <animate attributeName="stop-color" values="#FFD53F;#710010;#000E9D;#00AD1E;#E08B02;#FFD53F" dur="8s" repeatCount="indefinite"/>
  </stop>
	<stop  offset="0.2652" style="stop-color:#E08B02">
    <animate attributeName="stop-color" values="#E08B02;#FFD53F;#710010;#000E9D;#00AD1E;#E08B02" dur="8s" repeatCount="indefinite"/>
  </stop>
	<stop  offset="0.4875" style="stop-color:#00AD1E">
    <animate attributeName="stop-color" values="#00AD1E;#E08B02;#FFD53F;#710010;#000E9D;#00AD1E" dur="8s" repeatCount="indefinite"/>
  </stop>
	<stop  offset="0.8638" style="stop-color:#000E9D">
    <animate attributeName="stop-color" values="#000E9D;#00AD1E;#E08B02;#FFD53F;#710010;#000E9D" dur="8s" repeatCount="indefinite"/>
  </stop>
	<stop  offset="1" style="stop-color:#710010">
    <animate attributeName="stop-color" values="#710010;#000E9D;#00AD1E;#E08B02;#FFD53F;#710010" dur="8s" repeatCount="indefinite"/>
  </stop>
</linearGradient>
<path id="digital_1_" class="st0" d="M372.591,415.764c1.431,2.716,3.589,5.28,4.166,8.174c2.379,11.923,4.729,23.891,1.657,36.152
	c-0.896,3.577-0.9,7.385-1.354,11.082c-1.429,11.631-11.29,15.786-18.771,22.039c-0.648,0.542-1.475,1.001-2.286,1.18
	c-12.819,2.825-25.564,6.184-38.511,8.139c-6.581,0.994-13.539-0.448-20.308-1.012c-3.002-0.25-5.983-0.95-8.934-1.629
	c-5.635-1.296-11.25-2.687-16.857-4.107c-3.827-0.969-7.625-2.055-11.436-3.088c-0.323,0.644-0.647,1.288-0.97,1.932
	c1.455,1.371,2.698,3.187,4.402,4.04c8.711,4.358,17.336,8.715,27.625,8.097c5.996-0.36,12.086,0.849,18.13,1.386
	c12.301,1.093,23.932-1.248,35.105-6.626c2.576-1.24,5.7-1.291,8.571-1.888c0.344,0.475,0.689,0.949,1.033,1.424
	c-0.892,1.482-1.457,3.764-2.732,4.31c-6.294,2.693-12.61,5.842-19.232,7.1c-9.335,1.773-18.931,2.297-28.443,2.869
	c-17.795,1.07-33.428-5.841-48.508-14.478c-0.537-0.308-1.299-0.993-1.263-1.444c0.674-8.37-6.36-9.52-11.232-12.76
	c-5.059-3.364-10.2-6.618-11.114-13.713c-0.221-1.716-1.907-3.506-3.349-4.737c-5.635-4.812-8.093-11.136-9.628-18.272
	c-2.027-9.423-5.707-18.577-6.833-28.076c-1.647-13.89,2.511-27.148,7.402-40.04c0.67-1.767,1.175-3.598,2.168-6.674
	c-7.647,4.797-9.523,11.885-10.703,18.401c-1.964,10.843-2.514,21.967-3.382,32.995c-0.16,2.035,1.108,4.154,1.508,6.276
	c0.579,3.068,0.993,6.17,1.431,9.265c0.335,2.368-0.041,5.103,1.002,7.061c5.875,11.029,10.944,22.799,18.506,32.513
	c7.264,9.332,16.62,17.321,26.127,24.396c21.479,15.983,45.516,19.053,70.964,11.954c4.161-1.161,8.302-2.448,12.523-3.314
	c7.771-1.594,13.77-5.231,18.542-12.135c3.262-4.72,8.963-7.596,12.96-11.892c3.748-4.029,7.804-8.378,9.798-13.387
	c9.046-22.725,3.245-44.357-5.123-65.989c-4.9-12.667-7.285-26.352-12.208-39.008c-5.225-13.432-12.14-26.175-18.262-39.246
	c-1.905-4.068-3.628-8.224-5.712-12.973c2.792-0.255,4.459-0.407,6.657-0.608c-0.708-0.973-1.044-1.971-1.626-2.154
	c-6.975-2.19-11.067-7.572-14.134-13.768c-3.971-8.022-9.465-14.046-16.449-19.846c-8.302-6.896-16.778-13.165-26.126-18.217
	c-6.244-3.375-13.459-5.06-19.323-8.947c-14.908-9.879-31.135-4.475-46.659-4.627c-13.825-0.135-27.238,4.523-39.472,11.662
	c-2.805,1.637-5.286,3.889-8.16,5.36c-3.906,1.998-8.013,3.605-12.101,5.203c-2.002,0.782-4.367,0.765-6.202,1.792
	c-11.056,6.182-22.012,12.551-32.985,18.887c-1.695,0.979-3.193,2.395-4.972,3.129c-20.764,8.561-35.232,24.47-49.161,41.732
	c-15.382,19.063-32.441,36.709-48.673,55.062c-1.693,1.914-2.764,4.412-4.072,6.67c-2.834,4.89-4.98,6.063-13.379,5.976
	c3.378-5.429,5.589-10.463,9.056-14.314c20.429-22.684,41.41-44.853,61.645-67.714c8.024-9.065,17.042-16.852,26.171-24.509
	c5.101-4.279,11.449-7.028,17.305-10.337c6.959-3.933,13.868-7.996,21.039-11.488c4.992-2.432,10.387-4.002,15.605-5.949
	c2.614-0.975,5.961-1.199,7.728-3.025c7.796-8.06,18.222-9.626,27.987-13.021c5.024-1.747,9.529-5.098,14.577-6.724
	c8.193-2.637,16.63-4.49,24.981-6.604c10.989-2.781,21.234-0.334,31.585,3.796c8.693,3.468,18.547,4.259,26.772,8.498
	c10.343,5.33,19.73,12.715,29.129,19.771c2.509,1.884,3.04,6.336,5.367,8.692c7.506,7.598,16.51,13.756,20.997,24.137
	c0.452,1.046,2.12,1.477,3.036,2.39c5.03,5.019,11.751,9.234,14.639,15.334c6.653,14.052,15.424,26.573,25.519,37.742
	c7.829,8.662,10.776,18.962,14.846,29.061c3.371,8.367,5.634,17.231,9.371,25.405c3.061,6.696,7.378,12.835,11.49,18.975
	c4.518,6.747,8.993,13.621,14.318,19.676c4.672,5.311,10.377,9.714,15.853,14.23c3.237,2.67,7.654,4.201,7.448,11.169
	c-3.563-1.978-6.334-3.517-9.105-5.056c-0.56,0.538-1.12,1.076-1.68,1.614c3.211,2.101,6.422,4.202,10.041,6.57
	c-7.214,4.139-9.443,4.269-13.515-0.955c-5.371-6.889-9.986-14.405-14.778-21.751c-5.741-8.8-10.855-18.073-17.104-26.469
	c-7.089-9.522-11.676-19.854-14.685-31.378c-1.776-6.802-5.797-12.994-8.834-19.448c-0.745-1.584-2.136-3.064-2.294-4.686
	c-0.885-9.116-6.52-15.307-12.511-21.054c-6.448-6.185-11.361-13.109-14.794-21.529c-2.092-5.132-6.081-9.456-9.217-14.143
	c-0.643,0.435-1.287,0.87-1.93,1.305c7.152,14.796,14.304,29.593,21.056,43.562c1.105-1.518,2.52-3.461,3.935-5.405
	c1.717,2.143,3.937,4.045,5.052,6.477c2.83,6.169,5.009,12.646,7.735,18.868c3.536,8.073,7.972,15.792,10.867,24.085
	c2.866,8.209,4.318,16.935,6.349,25.445c1.529,6.406,3.118,12.803,4.426,19.257c0.565,2.787,1.263,5.926,0.566,8.532
	c-2.748,10.272-6.027,20.395-9.157,30.733c5.845-1.855,9.621-5.971,10.611-12.667c0.225-1.524,0.008-3.112,0.061-4.668
	c0.124-3.658-0.713-8.309,4.236-8.693c0.935-0.073,2.7,5.89,3.371,9.217c0.452,2.242-0.344,4.747-0.698,8.304
	c3.289-1.701,5.948-3.076,8.93-4.617c-7.251-14.147-16.838-26.889-17.135-43.931c5.627,1.192,7.418,5.166,9.195,9.497
	c3.644,8.879,7.274,17.799,11.624,26.32c1.458,2.856,5.291,4.353,7.641,6.86c1.298,1.385,1.775,3.575,2.621,5.402
	c-1.713,0.682-3.388,1.502-5.148,2.016c-3.336,0.973-6.702,1.858-10.09,2.615c-2.896,0.647-5.982,0.659-8.736,1.662
	c-8.387,3.052-16.75,6.221-24.922,9.822c-3.274,1.442-5.834,4.505-9.042,6.187c-14.368,7.534-28.245,16.868-43.473,21.627
	c-14.074,4.399-29.117,9.469-44.564,5.081c-3.285-0.933-6.382-2.557-9.565-3.862c0.272-1.12,0.545-2.241,0.817-3.361
	c4.127,0.527,8.244,1.356,12.385,1.51c6.302,0.234,12.627,0.151,18.932-0.084c4.65-0.174,9.38-0.357,13.899-1.362
	c4.559-1.013,9.253-2.411,13.274-4.745c14.469-8.398,28.693-17.239,42.963-25.99c1.267-0.777,2.7-1.913,3.216-3.227
	c6.684-17.042,14.213-33.942,7.806-53.066c-5.235-15.628-10.198-31.352-15.243-47.046c-1.281-3.985-2.06-8.183-3.726-11.982
	c-1.404-3.203-3.76-5.97-5.695-8.93c-0.672,0.276-1.344,0.552-2.016,0.827c0.32,1.911,0.358,3.93,1.01,5.715
	c2.778,7.616,5.704,15.176,8.643,22.73c1.749,4.496,3.7,8.911,5.428,13.415c7.859,20.486,12.499,41.278,4.211,62.824
	c-3.057,7.946-7.726,14.836-15.673,18.691c-1.157,0.561-2.44,1.162-3.249,2.114c-14.378,16.934-34.38,22.064-54.489,24.796
	c-13.668,1.857-27.9-0.516-41.869-1.215c-1.543-0.077-2.982-1.663-4.529-2.421c-4.196-2.053-8.536-3.829-12.604-6.114
	c-3.369-1.892-6.425-4.364-9.632-6.558c-4.242-2.902-8.499-5.78-12.743-8.678c-0.866-0.591-1.849-1.09-2.533-1.859
	c-4.045-4.545-8.53-8.797-11.92-13.816c-10.039-14.858-19.848-29.82-19.97-49.089c-0.057-9.045-2.396-18.127-1.974-27.107
	c0.331-7.051,2.38-14.423,5.34-20.845c4.476-9.711,10.409-18.72,15.123-28.988c-3.329,3.178-7.945,5.737-9.748,9.649
	c-5.483,11.9-10.303,24.175-14.459,36.626c-1.362,4.082,0.683,9.223,0.143,13.751c-0.979,8.218-0.901,16.67-0.243,24.585
	c0.689,8.275,5.61,16.272,9.142,24.175c2.122,4.748,5.138,9.078,7.73,13.608c8.088,14.135,18.888,25.056,33.397,32.635
	c14.019,7.322,27.237,16.233,40.965,24.159c2.866,1.655,6.367,2.53,9.676,2.957c25.451,3.288,48.878-3.139,71.136-15.52
	c6.104-3.395,12.642-5.084,17.881-10.961c3.924-4.401,11.59-5.306,17.581-7.791c9.405-3.901,18.909-7.579,28.165-11.821
	c6.088-2.79,11.763-0.504,17.566,0.413c1.36,0.215,2.514,1.786,3.41,4.449c-1.726,0.265-3.446,0.577-5.178,0.787
	c-5.84,0.71-11.944,0.512-17.481,2.228c-20.135,6.242-38.072,17.42-56.477,27.492c-22.849,12.505-47.032,18.84-73.059,17.033
	c-7.397-0.513-13.703-2.62-20.355-6.959c-7.658-4.996-15.182-11.697-25.246-12.366c-2.139-0.142-4.194-2.021-6.235-3.196
	c-4.98-2.866-10.052-5.592-14.853-8.746c-4.009-2.634-7.31-6.723-11.587-8.539c-10.09-4.285-12.835-15.454-20.781-21.736
	c-3.676-2.906-5.877-7.763-8.514-11.413c-0.445-3.04-0.84-6.076-1.339-9.094c-2.159-13.046-4.053-26.149-6.631-39.108
	c-1.681-8.451-0.78-15.86,3.417-23.534c2.633-4.814,2.28-11.256,4.547-16.374c3.908-8.822,8.16-17.648,13.546-25.562
	c3.252-4.778,8.919-7.839,12.937-12.768c-1.721,0.639-3.802,0.849-5.103,1.988c-7.916,6.929-18.106,12.091-19.118,24.649
	c-0.049,0.609-0.415,1.29-0.829,1.755c-13.3,14.957-13.192,33.371-12.461,51.779c0.341,8.603,4.102,17.773,2.137,25.589
	c-2.577,10.247,5.578,16.788,4.886,25.67c6.441,3.302,5.705,12.015,12.435,15.959c6.021,3.527,10.394,10.179,15.123,15.779
	c6.453,7.642,14.512,12.124,23.814,15.249c6.256,2.102,11.938,5.97,17.92,8.955c1.502,0.749,3.15,1.226,4.77,1.687
	c7.623,2.166,12.768,6.99,15.72,15.257c-11.861,1.409-23.067,2.553-32.449-6.776c-1.275-1.268-3.464-1.617-5.27-2.275
	c-1.823-0.664-4.987-0.743-5.344-1.836c-2.737-8.386-11.463-9.916-16.415-15.64c-0.432-0.5-0.825-1.233-1.371-1.402
	c-10.829-3.357-14.893-14.98-24.345-20.586c-6.218-3.688-9.989-11.958-14.365-18.518c-2.468-3.7-3.653-8.273-5.952-12.118
	c-1.854-3.101-4.511-5.701-7.178-8.974c5.566-8.13-1.711-16.563-1.236-25.354c0.414-7.683,0.379-15.392,0.866-23.069
	c0.117-1.85,1.034-4.264,2.398-5.317c10.79-8.335,10.169-22.202,15.574-33.127c8.295-16.767,18.395-32.286,34.731-41.106
	c15.89-8.579,33.236-12.295,50.915-2.028c-4.112-7.39-14.643-12.415-22.491-11.044c-5.503,0.961-10.98,2.071-16.473,3.093
	c-21.518,4.006-33.865,18.964-43.211,37.617c-1.545,3.084-3.83,5.771-5.546,8.777c-1.263,2.213-2.222,4.62-3.195,6.992
	c-0.986,2.403-1.779,4.888-2.733,7.305c-2.135,5.408-4.175,10.863-6.523,16.175c-2.243,5.073-5.816,9.739-7.085,15.016
	c-4.322,17.973-5.212,36.733,2.556,53.392c7.985,17.125,18.282,33.543,33.824,45.244c4.966,3.738,10.494,6.722,15.312,10.634
	c6.75,5.482,12.576,12.277,19.699,17.127c11.451,7.796,23.699,13.224,37.733,16.195c11.749,2.487,23.347,3.947,35.024,3.923
	c18.371-0.039,36.604-1.305,54.162-8.747c8.555-3.626,18.587-3.479,27.833-5.582c4.909-1.117,9.69-3.106,14.311-5.204
	c8.525-3.872,16.732-8.514,25.37-12.077c7.156-2.952,14.736-4.838,22.148-7.127c0.894-0.276,1.917-0.118,3.318-0.181
	c-0.39,5.8-4.355,6.879-8.124,8.37c-6.175,2.442-12.244,5.162-18.397,7.663c-4.973,2.021-9.985,3.947-15.014,5.818
	c-6.012,2.236-11.975,4.674-18.111,6.485c-14.622,4.316-29.145,9.394-44.065,12.13c-14.291,2.62-29.025,2.795-43.581,3.792
	c-5.193,0.356-10.461-0.397-15.65-0.007c-18.075,1.357-34.17-3.817-48.754-14.571c-1.318-0.972-3.2-1.101-4.712-1.85
	c-3.852-1.91-8.592-3.071-11.275-6.105c-7.315-8.272-17.687-11.108-26.217-17.073c-4.04-2.825-7.463-6.603-11.03-10.094
	c-3.491-3.418-6.838-6.99-10.191-10.552c-2.239-2.378-4.669-4.647-6.503-7.33c-4.544-6.65-9.658-13.107-12.918-20.401
	c-3.173-7.1-4.936-15.035-6.249-22.792c-3.51-20.741-2.736-40.696,9.056-59.405c5.58-8.853,8.467-19.455,12.832-29.143
	c1.587-3.523,3.871-6.728,5.93-10.017c2.178-3.479,5.232-6.6,6.574-10.372c5.547-15.591,19.163-20.745,32.137-26.743
	c4.517-2.088,9.311-3.549,13.98-5.292c14.691-5.484,27.945-3.084,39.789,7.454c1.902,1.692,4.112,3.021,6.18,4.517
	c0.626-0.427,1.251-0.854,1.877-1.281c-1.014-1.785-1.601-4.275-3.115-5.233c-6.255-3.956-12.64-7.764-19.257-11.036
	c-9.882-4.887-19.841-2.363-29.743,0.514c-30.347,8.817-47.711,31.064-59.577,59.358c-4.738,11.297-11.852,21.727-15.351,33.348
	c-4.475,14.866-7.09,30.437-9.195,45.891c-1.795,13.179,4.604,24.907,9.306,36.757c1.374,3.462,2.71,6.939,5.086,9.317
	c2.657,2.361,5.387,4.642,7.957,7.098c10.592,10.129,20.749,20.776,31.783,30.371c18.895,16.431,40.764,27.799,64.02,36.257
	c8.387,3.05,17.092,4.923,26.34,4.202c6.607-0.515,13.443,1.877,20.027,1.272c20.226-1.86,40.534-3.289,60.01-10.267
	c18.887-6.767,38.031-12.781,57.052-19.157c6.404-2.147,12.776-4.39,19.163-6.589c0.271,0.535,0.542,1.07,0.813,1.604
	c-0.692,0.978-1.173,2.408-2.109,2.866c-14.364,7.031-28.315,15.383-43.319,20.493c-17.83,6.072-36.483,9.811-54.967,13.604
	c-9.133,1.875-18.691,1.564-28.05,2.317c-4.742,0.382-9.463,1.083-14.209,1.374c-15.408,0.944-30.551,1.194-45.063-6.302
	c-10.245-5.292-21.351-8.837-32.05-13.22c-1.766-0.724-3.532-1.57-5.1-2.657c-6.782-4.704-13.166-10.112-20.287-14.179
	c-19.342-11.043-35.995-26.023-48.403-43.918c-13.06-18.834-21.868-40.844-12.524-65.413c1.226-3.224,0.49-7.227,0.663-10.869
	c-0.75-0.139-1.499-0.277-2.249-0.416c-2.829,12.475-5.795,24.92-8.357,37.452c-0.438,2.143,0.884,4.646,1.317,6.997
	c0.602,3.272,1.132,6.557,1.691,9.837c0.245,1.436,0.141,3.065,0.787,4.276c3.498,6.552,6.737,13.325,10.96,19.368
	c2.774,3.969,7.16,6.729,10.652,10.21c7.873,7.849,15.053,16.561,23.598,23.534c10.651,8.691,21.861,16.989,33.809,23.608
	c12.542,6.947,26.276,11.631,39.408,17.493c2.289,1.022,4.176,2.983,6.249,4.511c-0.343,0.793-0.687,1.587-1.03,2.38
	c-2.703-0.531-5.445-0.909-8.102-1.621c-7.905-2.121-15.801-4.286-23.647-6.62c-2.871-0.854-5.831-1.838-8.34-3.436
	c-9.73-6.199-19.384-12.534-28.877-19.104c-3.844-2.66-7.223-6.027-10.772-9.121c-1.156-1.008-2.008-2.496-3.293-3.217
	c-14.353-8.052-24.344-21.317-35.141-33.04c-13.24-14.376-18.347-32.981-15.744-53.397c2.39-18.751,7.753-36.183,18.333-51.793
	c0.862-1.273,1.707-2.642,2.842-3.624c9.332-8.074,11.914-20.09,17.158-30.544c0.358-0.714,0.31-1.65,0.39-2.489
	c0.013-0.141-0.283-0.314-0.591-0.63c-0.458,0.199-1.251,0.276-1.478,0.682c-4.111,7.381-7.919,14.954-12.354,22.123
	c-1.355,2.19-4.494,3.166-6.63,4.932c-1.708,1.411-3.805,2.898-4.579,4.832c-5.712,14.271-13.488,28.235-16.079,43.121
	c-3.578,20.557-4.619,42.05,6.516,61.46c1.793,3.125,4.704,5.59,7.151,8.31c3.753,4.172,7.258,8.643,11.401,12.366
	c6.149,5.524,12.762,10.508,19.187,15.71c0.335,0.271,0.86,0.347,1.114,0.666c10.026,12.557,23.982,19.879,36.79,28.681
	c14.48,9.95,30.717,15.819,47.587,19.833c2.268,0.539,4.963-1.004,7.49-1.361c5.259-0.742,10.821-2.763,15.76-1.742
	c20.793,4.297,41.495,2.94,62.124-0.103c18.185-2.682,36.212-6.479,54.312-9.769c0.854-0.155,2.007,0.167,2.558-0.302
	c9.449-8.037,20.562-4.431,31.125-4.934c3.348-0.16,6.635-1.678,9.947-2.582c2.43-0.663,4.857-1.336,7.285-2.005
	c0.322,0.754,0.644,1.509,0.966,2.263c-3.96,1.896-7.751,4.448-11.911,5.558c-10.625,2.836-21.363,5.31-32.152,7.408
	c-12.222,2.376-24.558,4.132-36.825,6.279c-2.959,0.518-5.801,1.745-8.762,2.238c-6.999,1.166-14.012,2.391-21.067,3.031
	c-9.467,0.859-18.976,1.306-28.477,1.69c-4.049,0.164-8.122-0.264-12.182-0.47c-0.399-0.02-0.78-0.533-1.172-0.538
	c-11.467-0.163-22.955,0.1-34.394-0.55c-8.64-0.491-17.615,1.879-25.875-3.419c-3.44-2.207-7.926-2.711-11.936-3.989
	c-0.365,0.738-0.73,1.475-1.095,2.213c1.856,1.311,3.555,3.338,5.597,3.809c8.583,1.98,17.212,3.95,25.93,5.076
	c14.139,1.826,28.407,4.531,42.538,4.094c26.599-0.823,53.348-1.001,79.533-7.529c17.579-4.382,35.36-7.943,53.118-11.525
	c3.915-0.79,8.113-0.116,12.989-0.116c-1.199,1.347-1.826,2.714-2.778,3.019c-8.417,2.695-16.843,5.39-25.371,7.679
	c-3.925,1.054-8.112,1.043-12.124,1.818c-3.07,0.593-6.011,1.88-9.08,2.475c-6.761,1.311-13.536,2.633-20.36,3.498
	c-17.404,2.207-34.797,5.222-52.273,5.943c-19.335,0.798-38.758-0.535-58.139-1.086c-3.659-0.104-7.412-0.467-10.926-1.445
	c-10.304-2.869-20.559-5.952-30.738-9.255c-7.74-2.511-16.625-3.773-22.746-8.587c-16.073-12.638-35.067-21.431-48.223-38.039
	c-2.934-3.704-7.566-6.182-11.744-8.642c-11.644-6.856-18.047-18.696-26.12-28.81c-5.54-6.941-7.617-15.577-5.339-25.039
	c1.592-6.613,2.05-13.541,2.673-20.361c0.599-6.562,2.07-11.988,7.575-16.74c3.304-2.853,3.915-9.002,5.66-13.699
	c5.415-14.575,10.203-29.432,16.374-43.663c4.938-11.387,10.733-22.589,17.634-32.826c6.852-10.164,16.015-18.667,23.354-28.528
	c12.813-17.217,29.851-26.88,49.65-33.589c10.941-3.707,20.815-4.486,31.46-0.83c2.409,0.827,5.24,1.16,7.742,0.783
	c18.683-2.811,31.192,7.872,41.661,21.066c4.96,6.251,7.777,14.607,10.36,22.426c4.264,12.908,8.07,26.03,11.082,39.295
	c2.312,10.18,3.173,20.711,4.532,31.105c0.43,3.291,0.134,6.685,0.609,9.965c1.347,9.303-3.565,19.73-11.828,23.508
	c-7.779,3.557-14.654,10.012-23.919,9.149c-8.588-0.799-17.163-1.981-25.661-3.48c-5.854-1.033-10.092-4.486-12.634-10.35
	c-0.821-1.894-3.639-2.927-5.615-4.239c-1.19-0.79-3.099-1.018-3.699-2.081c-7.608-13.476-12.926-27.64-9.473-43.522
	c0.848-3.901,3.642-7.36,6.141-12.176c2.267,3.282,3.348,4.847,4.204,6.087c2.444-2.572,4.802-7.185,7.439-7.358
	c4.613-0.303,9.524,1.774,14.07,3.51c3.862,1.475,7.386,3.876,11.059,5.867c0.456-0.609,0.911-1.219,1.367-1.828
	c-1.58-1.763-2.889-3.949-4.786-5.216c-8.316-5.554-17.294-7.6-27.192-5.095c-13.668,3.458-13.726,3.919-15.503,18.435
	c-1.206,9.848-3.349,19.541,0.186,29.254c1.136,3.122,2.864,6.019,3.983,9.146c0.919,2.569,0.802,5.634,2.074,7.945
	c4.864,8.838,10.03,17.507,15.275,26.117c0.833,1.367,2.542,2.334,4.037,3.094c5.02,2.55,10.297,4.614,15.17,7.419
	c17.681,10.179,35.595,8.79,54.409,3.23c20.946-6.19,28.239-21.2,29.507-41.438c0.247-3.945,0.951-7.925,1.966-11.744
	c3.65-13.733,0.407-26.614-4.1-39.44c-1.449-4.123-2.878-8.358-3.486-12.665c-2.286-16.169-12.277-28.535-19.456-42.292
	c-11.36-21.768-28.378-38.652-46.681-53.938c-5.871-4.903-15.099-5.598-22.783-8.244c-3.629-1.25-7.315-2.374-10.843-3.879
	c-10.756-4.587-21.634-3.441-32.494-0.804c-21.926,5.323-40.504,17.502-58.361,30.809c-8.814,6.568-16.779,14.323-25.155,21.509
	c-1.487,1.275-2.967,2.677-4.682,3.537c-11.964,6.002-18.904,16.886-26.088,27.594c-2.734,4.075-5.816,7.906-8.74,11.848
	c0.52,0.446,1.041,0.892,1.561,1.338c3.75-4.238,7.448-8.525,11.261-12.703c6.371-6.981,12.604-14.118,19.352-20.7
	c2.139-2.086,5.746-2.583,8.657-3.865c0.947-0.417,1.938-0.873,2.706-1.552c7.493-6.621,15.104-13.114,22.372-19.986
	c17.932-16.958,40.222-24.983,62.887-32.049c10.336-3.222,20.519,0.02,30.597,2.914c7.041,2.021,14.4,2.916,21.389,5.082
	c3.489,1.081,6.468,3.883,9.677,5.907c-0.156,0.572-0.312,1.144-0.468,1.716c-1.517,0.196-3.218,0.944-4.521,0.492
	c-5.819-2.018-11.467-4.554-17.294-6.545c-3.027-1.034-6.286-1.396-9.46-1.938c-15.282-2.609-30.848-4.232-45.277,2.478
	c-13.312,6.191-26.968,11.364-38.504,22.019c-10.423,9.627-21.08,19.429-34.216,26.484c-12.088,6.492-22.254,17.545-29.187,30.53
	c0.402,0.407,0.804,0.814,1.206,1.221c8.257-9.164,16.514-18.328,24.771-27.493c-0.115,10.162-6.504,16.486-11.984,23.22
	c-7.907,9.717-16.276,19.043-24.133,28.801c-2.228,2.767-3.132,6.601-5.035,9.695c-5.821,9.468-11.795,18.839-17.787,28.195
	c-2.722,4.25-6.333,8.056-8.319,12.619c-5.826,13.385-16.215,23.105-25.375,33.72c-5.62,6.513-12.691,11.75-19.329,17.287
	c-1.572,1.312-4.019,1.529-6.063,2.249c-0.466-0.512-0.932-1.025-1.398-1.537c1.76-3.357,2.898-7.343,5.413-9.934
	c4.71-4.853,9.34-9.513,15.603-13.142c7.491-4.341,13.113-12.65,18.504-20.034c7.067-9.681,13.047-20.185,19.649-30.228
	c1.795-2.73,4.203-5.033,6.23-7.613c1.657-2.109,3.167-4.34,3.752-7.65c-0.703,0.182-1.721,0.119-2.063,0.58
	c-9.189,12.386-18.305,24.828-27.442,37.254c-3.89,5.29-7.652,10.691-11.791,15.769c-1.165,1.429-3.464,1.893-5.865,2.056
	c17.365-32.594,40.643-60.3,66.219-86.21c-0.355-0.594-0.711-1.189-1.066-1.783c-2.076,0.374-4.892,0-6.099,1.25
	c-5.421,5.614-10.347,11.726-15.524,17.591c-6.066,6.871-12.628,13.336-18.207,20.594c-6.369,8.286-11.692,17.403-17.829,25.886
	c-9.086,12.559-14.555,27.948-27.918,37.206c-2.039,1.412-3.366,3.873-5.138,5.734c-0.367,0.385-1.246,0.26-2.298,0.441
	c-1.173-7.458,4.271-12.218,7.853-16.6c11.966-14.638,22.965-29.864,32.503-46.245c2.318-3.981,5.085-7.719,7.899-11.364
	c16.19-20.968,32.293-42.01,48.777-62.735c6.562-8.251,13.511-16.341,21.24-23.411c5.895-5.392,13.339-8.999,20.006-13.536
	c1.951-1.327,3.731-2.988,5.37-4.714c24.298-25.588,53.898-39.064,88.742-38.961c13.029,0.039,25.472,3.091,37.807,9.681
	c10.643,5.686,18.375,15.037,28.19,20.091c13.26,6.829,17.736,19.722,25.421,29.885c9.043,11.958,14.408,27.012,20.391,41.155
	c9.232,21.823,17.085,44.073,14.762,68.648c-1.462,15.462-4.011,30.613-9.364,45.19c-0.271,0.738-0.999,1.522-1.705,1.837
	c-12.988,5.789-25.96,11.623-39.06,17.139c-2.287,0.963-5.207,1.014-7.718,0.649c-13.472-1.959-26.907-4.179-40.352-6.326
	c-1.063-0.17-2.282-0.188-3.131-0.748c-23.353-15.394-37.501-36.535-40.945-65.306c-1.439-12.025-1.177-23.493,2.061-35.096
	c-6.096,8.454-11.988,16.459-9.014,28.224c2.306,9.122,2.112,18.883,4.07,28.129c0.887,4.186,4.299,7.813,6.564,11.695
	c0.83,1.422,1.608,2.878,2.488,4.267c2.015,3.18,4.038,6.357,6.133,9.482c1.96,2.925,3.485,6.501,6.126,8.539
	c9.412,7.264,18.37,15.225,30.871,17.206c18.418,2.919,36.976,7.583,55.217,1.434c11.349-3.825,21.895-10.367,32.378-16.453
	c2.055-1.193,1.317-6.776,3.338-8.793c4.814-4.803,5.019-10.447,4.774-16.456c-0.348-8.525-0.899-17.044-1.1-25.572
	c-0.074-3.154,0.597-6.326,0.928-9.489C371.244,416.11,371.917,415.937,372.591,415.764z M279.668,396.401
	c-3.459-8.411-13.962-12.328-20.649-9.322c-1.508,0.678-2.948,2.498-3.553,4.128c-4.014,10.807,0.278,24.254,10.413,29.184
	c6.035,2.936,13.163,3.529,19.804,5.156c2.015,0.493,5.112,0.229,5.892,1.49c4.413,7.131,9.883,2.608,14.36,1.103
	c2.23-0.75,3.518-5.054,4.813-7.946c2.114-4.723-0.448-11.322,6.025-15.128c0.746,3.707,1.7,6.874,1.975,10.102
	c0.899,10.527-9.542,23.455-19.807,24.591c-5.145,0.569-10.36,1.34-15.482,1.01c-5.212-0.336-10.708-1.084-15.398-3.217
	c-3.483-1.585-5.859-5.69-8.759-8.64c-5.673-5.77-9.896-12.115-10.264-20.793c-0.243-5.718-1.602-11.386-2.462-17.076
	c-7.353,21.82,4.376,44.651,24.916,53.031c13.902,5.672,26.378,0.423,39.128-3.053c9.405-2.564,12.403-7.697,12.082-17.827
	c-0.105-3.303-0.715-6.594-1.17-9.879c-1.03-7.429-3.027-14.865-2.927-22.274c0.117-8.642-1.251-16.6-4.446-24.507
	c-2.722-6.738-5.347-13.6-7.106-20.644c-4.481-17.942-14.637-30.73-31.202-38.283c-5.309-2.421-10.202-6.421-15.719-7.632
	c-20.482-4.495-40.01,0.678-57.002,11.689c-10.856,7.035-19.008,18.462-28.261,28.032c-3.511,3.631-6.712,7.574-10.353,11.714
	c0.735,1.226,1.97,3.284,3.218,5.363c2.772-3.641,4.995-7.22,7.838-10.176c10.254-10.665,17.469-24.643,32.089-30.617
	c2.91-1.189,5.206-4.819,8.043-5.173c14.29-1.785,28.09-11.602,43.095-3.185c0.512,0.287,1.352-0.091,1.93,0.134
	c7.998,3.115,17.626,4.395,23.597,9.851c10.565,9.652,17.691,22.231,22.216,36.676c7.066,22.555,8.493,44.322-1.48,66.188
	c-1.967,4.312-4.171,7.781-9.685,5.541c2.912-7.851,5.308-15.641,8.654-22.978c3.743-8.208-0.401-16.113,0.197-24.049
	c0.991-13.148-5.112-24.202-9.157-35.798c-1.085-3.11-5.534-5.025-8.564-7.315c-0.184-0.139-2.26,1.632-2.142,1.893
	c1.405,3.106,2.509,6.643,4.759,9.005c5.554,5.831,9.154,12.604,9.426,20.561c0.423,12.38,0.344,24.806-0.185,37.184
	c-0.373,8.708-8.634,16.077-16.345,15.144c-8.41-1.017-16.642-2.931-21.755-10.858c-1.591-2.468-2.526-5.378-3.761-8.085
	c0.664-0.537,1.328-1.074,1.992-1.611c2.029,1.316,4.02,2.699,6.096,3.93c2.767,1.641,5.499,3.412,8.432,4.676
	c4.122,1.776,8.414,3.138,12.762,4.724c5.626-4.882,6.536-13,6.582-21.544c0.078-14.506-1.719-19.145-9.239-21.322
	c0.906,2.929,1.836,5.598,2.551,8.326c1.337,5.1,3.278,10.181,3.637,15.367c0.513,7.419-3.632,11.062-10.849,10.525
	c-8.236-0.613-14.703-4.576-19.674-11.311c3.501-3.993,6.951-2.853,10.676-0.807C272.749,393.471,276.259,394.84,279.668,396.401z
	 M111.215,460.695c-0.802-0.087-1.603-0.174-2.405-0.261c-2.69,12.102-4.214,24.352-3.272,36.875
	c0.071,0.949,1.09,1.826,1.674,2.733c3.667,5.697,7.153,11.526,11.059,17.046c3.238,4.576,6.233,9.884,10.617,12.959
	c15.037,10.55,28.907,22.719,42.848,34.506c11.786,9.964,25.576,15.243,37.978,23.418c0.52,0.343,1.55-0.125,2.342-0.215
	c0.264-0.552,0.528-1.104,0.792-1.657c-4.66-2.861-9.282-5.79-13.995-8.555c-2.516-1.477-5.416-2.348-7.755-4.05
	c-11.67-8.49-23.367-16.957-34.725-25.871c-4.921-3.862-8.501-9.644-13.643-13.052c-15.383-10.194-24.415-25.244-31.86-41.557
	c-1.515-3.319-1.698-7.551-1.554-11.324C109.584,474.678,110.544,467.693,111.215,460.695z M260.375,345.37
	c0.254-0.881,0.508-1.763,0.762-2.644c-4.421-1.925-8.759-4.093-13.284-5.712c-5.268-1.885-9.968-1.567-13.316,4.195
	c-0.756,1.301-4.051,2.215-5.614,1.658c-4.896-1.745-5.865,0.984-7.448,6.895c6.052-2.116,10.851-3.107,14.957-5.396
	c5.726-3.193,10.978-4.72,17.009-0.971C255.413,344.622,258.044,344.743,260.375,345.37z M177.088,460.565
	c-1.825-17.432-6.718-33.54-2.034-50.116C167.842,420.7,168.864,449.308,177.088,460.565z M280.668,363.239
	c1.116-0.368,2.233-0.736,3.349-1.104c0-2.242,0.884-5.757-0.151-6.509c-4.807-3.49-10.146-6.213-15.818-9.516
	C272.716,352.445,276.692,357.842,280.668,363.239z M238.799,536.047c8.016,4.086,16.032,8.171,24.048,12.257
	C258.82,540.066,247.989,534.653,238.799,536.047z M155.232,363.283c-9.045,5.129-13.912,12.921-14.046,23.721
	C145.867,379.098,150.549,371.19,155.232,363.283z M238.622,357.379c3.956,1.617,6.88,3.136,9.982,3.947
	c1.634,0.427,3.577-0.381,5.38-0.631c-0.818-1.372-1.355-3.129-2.524-4.02c-1.494-1.139-3.455-2.042-5.291-2.217
	C242.993,354.155,238.858,352.794,238.622,357.379z M238.972,360.216c-8.935-0.582-10.617,0.807-11.543,9.897
	C230.885,367.15,234.341,364.187,238.972,360.216z M261.161,360.145c-0.387,0.734-0.774,1.468-1.161,2.202
	c3.077,1.965,6.154,3.929,9.231,5.893C268.421,362.767,267.123,358.128,261.161,360.145z M279.778,472.037
	c0.504,0.342,0.975,0.755,1.515,1.016c18.574,8.986,36.23,2.951,53.524-4.085c4.263-1.734,8.17-5.874,10.866-9.876
	c9.206-13.661,10.219-30.354,9.029-45.34c-2.26-28.457-10.728-55.887-25.052-80.836c-3.897-6.787-9.264-12.716-14.164-18.867
	c-2.422-3.041-5.825-5.347-7.902-8.579c-7.155-11.13-16.999-16.655-30.009-16.598c-2.973,0.013-6.212-0.005-8.882-1.122
	c-21.817-9.125-43.831-8.206-64.157,2.555c-28.586,15.133-56.24,32.022-74.602,60.867c-8.711,13.685-19.229,26.158-28.645,39.391
	c-3.411,4.794-5.765,10.361-9.007,15.297c-5.148,7.838-11.751,14.884-15.762,23.255c-10.386,21.679-25.375,39.489-42.07,56.067
	c-2.25,2.235-5.151,3.785-7.401,6.02c-3.778,3.753-7.288,7.789-10.882,11.733c-1.802,1.978-3.542,4.015-5.31,6.025
	c0.529,0.525,1.057,1.049,1.586,1.574c5.264-6.359,14.955-2.259,20.214-11.322c5.208-8.976,15.046-15.004,21.322-23.506
	c10.14-13.736,19.01-28.452,28.448-42.732c5.569-8.426,13.355-16.102,16.275-25.387c3.949-12.557,14.408-19.449,20.142-30.153
	c3.697-6.901,9.117-12.813,13.259-19.496c5.92-9.552,11.097-19.613,21.732-24.886c1.645-0.816,2.621-2.938,4.125-4.178
	c2.912-2.4,5.703-5.889,9.038-6.642c9.687-2.187,14.472-11.254,22.612-15.517c4.121-2.159,7.126-6.629,11.294-8.596
	c31.192-14.717,62.106-12.37,92.564,2.58c1.611,0.791,2.772,2.623,4.025,4.076c3.261,3.782,6.698,7.443,9.603,11.497
	c2.45,3.42,4.802,7.123,6.184,11.072c1.355,3.874,0.859,8.42,2.187,12.311c2.816,8.251,6.132,16.336,9.525,24.365
	c8.71,20.609,8.057,42.783,10.112,64.448c0.43,4.537-1.33,11.651-4.503,13.746c-9.828,6.489-20.42,12.365-31.479,16.138
	c-10.647,3.632-21.975,1.289-32.385-3.303c-2.969-1.31-5.473-3.765-8.115-5.798c-2.751-2.117-5.41-4.359-8.109-6.546
	c-0.806,0.722-1.612,1.443-2.417,2.165c1.859,2.797,3.304,6.048,5.665,8.292c4.417,4.198,9.218,8.026,14.166,11.559
	c1.917,1.369,5.099,2.724,6.965,2.024c10.172-3.819,20.703-2.116,31.05-2.986c2.921-0.246,6-0.97,8.597-2.307
	c6.715-3.458,13.301-7.212,19.71-11.23c1.65-1.035,3.368-3.413,3.502-5.29c1.157-16.172,1.979-32.369,2.82-48.563
	c0.054-1.038-0.597-2.103-0.859-3.171c-1.57-6.406-3.345-12.77-4.626-19.236c-1.801-9.089-2.911-18.316-8.935-25.942
	c-1.169-1.48-1.011-4.055-1.843-7.849c10.361,11.034,12.507,23.682,16.198,35.597c2.337,7.543,5.496,15.05,6.327,22.793
	c1.109,10.335,0.69,20.901,0.243,31.337c-0.511,11.908-2.852,23.088-16.057,27.497c-1.139,0.38-1.85,1.988-2.987,2.505
	c-7.854,3.571-15.52,8.007-23.749,10.134c-5.647,1.459-12.1-0.461-18.199-0.644c-2.133-0.064-4.285,0.547-6.428,0.85
	C279.704,470.839,279.741,471.438,279.778,472.037z M243.15,662.267c-7.692,6.604-15.905,4.275-23.857,3.729
	c-5.29-0.363-10.712-4.391-16.621,0.996c13.571,5.571,28.481-0.773,41.873,6.962c-4.863,2.877-10.029,5.726-0.594,9.317
	c-5.803,5.117-8.887,10.868-5.912,18.994c-3.212,0-5.6,0-8.656,0c1.217-2.112,2.132-3.699,3.153-5.472
	c-5.085-0.263-5.085-0.263-7.772,8.763c-6.39-0.899-12.91-1.817-18.328-2.579c0.903-3.155,2.087-5.758,2.324-8.448
	c0.46-5.211,2.617-5.863,6.918-3.846c1.778,0.833,4.067,0.526,6.123,0.737c0.101-0.601,0.202-1.202,0.304-1.804
	c-2.032-2.584-4.064-5.168-7.115-9.046c6.441,0,10.725,0,15.336,0c-5.917-6.359-15.927-7.825-23.135-4.263
	c-1.862,0.92-4.66,0.579-6.822,0.006c-5.702-1.51-11.29-3.466-17.288-4.318c1.733,7.335,6.92,8.26,12.649,8.255
	c5.398-0.005,10.796-0.001,16.445-0.001c0.059,5.022-2.823,8.156-6.187,6.483c-4.666-2.321-8.56-0.296-12.796-0.317
	c-6.756-0.034-13.51-0.522-20.266-0.765c-2.345-0.084-4.695-0.013-8.142-0.013c2.321,12.054,13.783,4.12,18.881,10.497
	c-2.518,0.534-4.639,1.515-6.645,1.311c-6.227-0.633-12.414-1.685-18.603-2.665c-0.775-0.123-1.804-0.6-2.147-1.234
	c-3.437-6.35-6.612-12.854-10.204-19.108c-0.936-1.629-3.276-2.344-4.607-3.822c-2.154-2.393-5.848-5.264-5.614-7.588
	c0.545-5.414-2.888-8.005-5.96-7.698c-13.379,1.336-24.071-8.52-36.944-8.474c-7.754,0.028-13.868-2.546-18.247-11.624
	c6.86,1.98,12.514,3.431,18.047,5.265c4.674,1.549,8.885,3.827,14.262,1.399c2.064-0.932,5.6,1.426,8.425,2.407
	c2.536,0.88,5.015,1.929,9.223,3.565c-5.611-8.136-12.702-8.776-19.287-10.518c-11.963-3.166-24.515-4.605-35.043-12.047
	c-1.915-1.354-3.387-3.361-6.066-6.086c17.508,4.412,33.295,8.39,49.083,12.368c0.28-0.797,0.56-1.594,0.841-2.391
	c-4.957-2.159-9.735-5.144-14.907-6.317c-13.474-3.057-26.629-6.864-38.855-13.506c-2.295-1.247-4.174-3.294-6.244-4.972
	c0.231-0.579,0.462-1.158,0.692-1.737c2.858,0.293,5.828,0.172,8.554,0.95c12.575,3.587,25.19,7.093,37.578,11.282
	c8.991,3.04,17.584,7.294,26.491,10.622c3.77,1.408,7.886,1.858,11.857,2.682c1.05,0.218,2.329-0.128,3.193,0.36
	c18.328,10.358,38.794,13.895,58.653,19.388c4.112,1.137,8.072,2.845,13.861,4.921c-3.39,1.916-5.244,2.964-8.532,4.823
	C219.194,660.202,231.772,653.996,243.15,662.267z M204.029,654.931c-10.048-2.144-20.096-4.287-30.144-6.431
	c-0.123,0.666-0.245,1.332-0.368,1.999C182.491,658.792,193.471,655.736,204.029,654.931z M149.296,651.795
	c7.625,7.933,13.58,9.463,18.626,5.516C161.506,655.412,155.401,653.604,149.296,651.795z M145.201,640.663
	c0.193-1.09,0.386-2.18,0.579-3.27c-6.575-1.229-13.15-2.458-19.725-3.687c-0.161,0.84-0.321,1.68-0.482,2.52
	C132.116,637.704,138.659,639.183,145.201,640.663z M156.028,641.149c-0.363,1.104-0.727,2.207-1.09,3.31
	c4.188,1.396,8.375,2.791,12.563,4.187c0.344-1.079,0.689-2.158,1.033-3.237C164.365,643.989,160.196,642.569,156.028,641.149z
	 M122.747,277.158c1.82-1.729,3.381-3.958,5.501-5.105c13.294-7.191,26.639-14.292,40.131-21.083
	c4.361-2.195,9.286-3.188,13.83-5.045c9.333-3.812,18.466-8.162,27.897-11.688c11.393-4.26,22.965-5.124,35.038-1.964
	c9.334,2.443,19.45,2.048,28.561,5.021c9.969,3.253,19.192,8.905,28.721,13.554c4.077,1.989,8.25,3.838,12.107,6.212
	c3.216,1.979,5.959,4.745,9.058,6.947c2.043,1.452,4.378,2.465,6.523,3.777c3.963,2.423,8.54,4.247,11.714,7.493
	c26.126,26.721,47.561,57.247,68.522,88.222c7.22,10.669,16.814,19.627,24.774,29.815c6.124,7.838,9.936,17.659,19.475,22.437
	c1.29,0.646,2.21,2.115,3.227,3.271c6.638,7.55,6.188,9.451-4.27,13.653c2.994,3.779,5.8,7.219,8.49,10.75
	c2.111,2.771,4.289,5.531,5.996,8.557c0.614,1.089,0.205,3.038-0.281,4.389c-0.185,0.513-2.486,0.946-2.805,0.553
	c-0.818-1.008-1.119-2.483-1.516-3.806c-0.179-0.596-0.092-1.275-1.201-0.583c-3.592-2.355-7.383-4.448-10.741-7.111
	c-12.338-9.787-21.594-22.189-29.113-36.11c-1.942-3.595-4.961-6.581-7.969-9.468c9.82,29.565,35.113,47.729,51.888,72.156
	c-21.818-4.016-62.685-58.068-61.381-79.99c1.56,0.107,3.115,0.214,5.305,0.365c-1.126-1.571-1.904-2.815-2.834-3.926
	c-3.175-3.795-6.794-7.269-9.547-11.356c-13.731-20.393-27.239-40.942-40.831-61.432c-0.242-0.365-0.546-0.692-0.84-1.018
	c-15.438-17.108-30.677-34.413-46.466-51.176c-3.738-3.968-9.273-6.207-14.078-9.073c-3.515-2.097-7.07-4.203-10.813-5.805
	c-8.794-3.764-17.513-7.947-26.643-10.575c-6.742-1.94-14.167-2.758-21.147-2.209c-16.491,1.296-31.888,7.209-47.07,13.683
	c-5.546,2.365-11.548,3.629-17.051,6.077c-4.988,2.219-9.584,5.358-14.341,8.113c-0.555,0.321-0.984,0.906-1.56,1.147
	c-11.047,4.626-22.108,9.219-33.166,13.819C123.477,278.15,123.112,277.654,122.747,277.158z M450.383,430.002
	c0.626-0.653,1.251-1.305,1.877-1.958c-4.271-4.609-8.978-8.878-12.722-13.898c-7.761-10.404-12.702-22.451-22.77-31.76
	c-10.473-9.684-17.423-23.26-26.462-34.681c-9.729-12.292-14.84-27.628-26.822-38.631c-11.398-10.467-20.819-23.172-31.274-34.737
	c-1.715-1.897-4.279-2.993-6.451-4.459c-0.478,0.568-0.957,1.136-1.435,1.704c1.815,2.104,3.582,4.255,5.454,6.305
	c12.372,13.547,24.776,27.063,37.131,40.625c0.72,0.79,1.044,1.942,1.653,2.855c8.155,12.24,15.942,24.761,24.579,36.635
	c15.773,21.685,31.965,43.054,48.216,64.368C443.699,425.445,447.342,427.484,450.383,430.002z M72.56,542.745
	c7.842,1.029,15.649,0.418,22.859,6.568c7.608,6.49,17.274,10.577,26.303,15.178c12.427,6.333,25.071,12.224,37.677,18.183
	c7.515,3.552,15.128,6.888,22.72,10.266c0.766,0.341,1.78,0.59,2.531,0.365c1.332-0.398,2.848-0.937,3.672-1.944
	c0.339-0.414-0.608-2.704-1.499-3.267c-6.561-4.146-12.912-8.966-20.004-11.82c-7.383-2.971-13.184-6.974-17.446-13.794
	c-2.049-3.278-4.626-6.513-7.669-8.775c-6.24-4.638-12.976-8.572-19.468-12.86c-5.044-3.332-9.986-6.825-15.048-10.127
	c-5.305-3.46-10.98-6.413-15.9-10.361c-1.667-1.338-1.522-5.034-2.205-7.653c0.633-0.208,1.266-0.416,1.899-0.624
	c1.397,2.159,2.63,4.456,4.232,6.443c2.058,2.552,4.181,5.171,6.738,7.131c1.257,0.963,3.555,0.507,5.382,0.693
	c-0.186-1.778,0.165-3.898-0.667-5.264c-1.817-2.98-4.297-5.529-6.395-8.341c-3.889-5.213-9.065-9.856-7.805-17.475
	c0.791-4.786,1.228-9.674,2.486-14.33c3.493-12.924,7.1-25.828,11.145-38.58c1.717-5.412,4.843-10.339,6.977-15.634
	c5.998-14.883,11.097-30.195,17.92-44.663c5.708-12.105,13.299-23.288,20.193-34.794c0.854-1.425,2.609-2.26,3.836-3.483
	c4.929-4.916,9.897-9.799,14.622-14.915c0.65-0.704,0.017-2.646-0.022-4.015c-1.533,0.189-3.893-0.206-4.474,0.654
	c-9.162,13.568-23.605,22.226-31.326,37.489c-5.851,11.566-15.224,21.244-22.761,31.96c-2.985,4.243-5.122,9.099-7.864,13.533
	c-3.174,5.133-7.937,9.688-9.601,15.248c-2.813,9.398-9.376,15.65-14.767,22.995c-3.598,4.903-6.848,10.125-9.767,15.482
	c-2.456,4.509-3.218,10.341-6.458,13.979c-10.479,11.764-21.55,23.006-32.825,33.985c-4.336,4.222-9.837,7.193-14.807,10.734
	c0.314,0.868,0.627,1.735,0.941,2.603c2.195-0.309,4.818,0.064,6.511-1.045c7.051-4.621,13.822-9.688,20.696-14.592
	c1.89-1.348,3.823-3.896,5.657-3.823c5.395,0.214,6.063-4.131,8.042-7.299c0.861-1.378,1.413-2.973,2.363-4.273
	c4.376-5.991,9.739-11.433,13.086-17.962c6.546-12.77,12.617-25.721,22.053-36.667c1.815-2.105,2.98-4.852,4.207-7.422
	c4.422-9.261,8.686-18.601,13.155-27.838c0.755-1.56,2.226-2.758,4.348-5.299c-0.14,2.592,0.075,3.576-0.27,4.269
	c-9.93,19.912-16.744,41.005-23.484,62.204c-3.702,11.645-8.609,22.635-5.146,35.316c1.36,4.981-0.522,9.337-5.383,13.049
	c0.631-6.226,1.179-11.627,1.727-17.028c-0.686-0.237-1.372-0.475-2.058-0.712c-1.794,2.331-4.528,4.411-5.2,7.042
	c-1.82,7.117-4.031,12.355-10.851,17.343c-7.683,5.619-15.091,11.295-23.655,15.496c-3.013,1.478-5.443,4.199-8.139,6.352
	c0.489,0.709,0.977,1.417,1.466,2.126c17.801-4.832,34.172-12.319,46.489-27.074c0.549,2.394,0.262,6.511,2,7.821
	c9.129,6.879,18.798,13.004,28.212,19.494c2.386,1.645,4.481,3.723,6.783,5.504c2.81,2.174,5.562,4.476,8.586,6.295
	c3.155,1.898,6.603,3.288,9.923,4.9c-0.402,0.886-0.805,1.771-1.207,2.657c-4.312-2.056-8.872-3.702-12.886-6.249
	c-10.025-6.361-19.661-13.366-29.746-19.619c-3.975-2.465-8.599-4.233-13.156-5.234c-8.49-1.865-19.392,3.249-22.804,11.391
	C63.105,542.633,67.902,542.133,72.56,542.745z M376.808,296.037c-6.302-0.768-9.659-5.227-12.684-10.294
	c-1.9-3.181-3.824-6.527-6.431-9.05c-5.595-5.414-11.623-10.362-17.508-15.459c-2.304-1.996-4.571-4.077-7.076-5.782
	c-7.779-5.293-15.612-10.508-23.523-15.591c-6.124-3.935-11.976-9.069-18.694-11.114c-12.304-3.746-25.271-5.144-37.754-8.36
	c-17.45-4.495-34.821-4.005-52.063,0.091c-12.924,3.07-25.644,7.121-38.311,11.204c-8.23,2.653-16.341,5.822-24.246,9.363
	c-7.081,3.172-14.508,6.237-20.556,10.984c-15.576,12.226-30.497,25.326-45.625,38.145c-4.093,3.468-8.233,6.938-11.924,10.831
	c-6.725,7.093-12.722,14.949-19.757,21.685c-13.716,13.133-28.346,25.33-37.534,43.106c4.99-1.646,10.186-3.334,13.938-6.703
	c6.449-5.789,12.316-12.353,17.855-19.083c10.753-13.064,21.31-26.253,34.104-37.386c10.562-9.19,20.406-19.296,31.362-27.945
	c15.5-12.235,31.713-23.529,47.691-35.125c1.102-0.8,2.765-0.844,4.189-1.116c2.841-0.542,5.757-0.771,8.536-1.531
	c10.152-2.777,20.185-6.053,30.415-8.469c5.645-1.333,11.977-0.212,17.329-2.14c15.816-5.699,31.643-3.559,47.449-1.283
	c31.195,4.492,56.044,23.049,81.183,40.245c9.541,6.526,17.57,15.942,24.872,25.208c29.207,37.061,57.861,74.579,86.713,111.933
	c4.265,5.521,9.919,8.59,16.822,10.944c0.775-6.705-2.989-9.75-6.525-12.966c-3.883-3.532-8.181-6.734-11.454-10.792
	c-11.156-13.83-21.828-28.066-32.897-41.97c-11.326-14.227-23.009-28.158-34.266-42.44c-1.883-2.389-2.399-5.905-3.547-8.901
	L376.808,296.037z M7.614,326.506c8.195-5.716,16.525-11.242,24.526-17.227c3.982-2.979,7.037-7.281,11.083-10.137
	c8.125-5.735,16.813-10.634,24.953-16.348c9.044-6.349,18.952-12.067,26.292-20.142c10.703-11.774,24.505-18.395,36.938-27.273
	c3.345-2.389,6.769-4.957,10.543-6.355c5.967-2.211,12.27-3.462,18.412-5.191c19.498-5.489,38.404-13.727,59.108-13.649
	c10.19,0.038,20.615-0.855,30.512,1.008c15.424,2.904,30.472,7.869,45.715,11.816c7.715,1.998,16.058,2.464,23.127,5.809
	c8.832,4.179,16.51,10.837,24.928,16.014c12.671,7.791,21.774,19.288,31.692,30.113c25.104,27.401,45.278,59.671,76.283,81.257
	c3.701,2.577,7.74,4.647,11.622,6.952c0.477-0.614,0.954-1.229,1.43-1.843c-0.747-1.455-1.19-3.236-2.292-4.31
	c-5.108-4.978-9.846-10.672-15.746-14.413c-10.783-6.838-19.263-15.499-25.383-26.76c-0.83-1.527-2.042-2.881-3.252-4.14
	c-22.854-23.772-45.587-47.671-68.743-71.133c-4.321-4.378-9.971-8.15-15.694-10.157c-11.395-3.996-21.503-12.085-34.299-11.745
	c-15.713-11.105-35.321-6.739-52.105-13.653c-1.322-0.545-3.02-0.167-4.543-0.17c-6.388-0.015-12.821-0.505-19.155,0.095
	c-10.669,1.01-21.487,1.81-31.858,4.344c-15.055,3.678-30.128,7.875-44.526,13.604c-14.191,5.647-28.54,12-41.02,20.732
	c-15.085,10.554-27.799,24.58-42.421,35.917c-15.575,12.076-32.307,22.58-48.241,34.19c-3.892,2.836-6.643,7.31-9.918,11.031
	C6.261,325.328,6.937,325.917,7.614,326.506z M20.824,419.069c3.709-7.305,8.364-13.125,14.257-18.474
	c3.816-3.463,6.861-7.878,9.941-12.103c2.887-3.961,4.777-8.833,8.127-12.262c13.036-13.346,26.155-26.391,35.437-43.136
	c3.954-7.133,10.408-13.215,20.077-16.964c-1.354,2.038-1.808,2.669-2.209,3.333c-6.027,9.998-15.934,16.341-21.9,26.987
	c-7.431,13.259-18.822,24.168-28.242,36.302c-6.581,8.477-12.645,17.37-19.089,25.96c-5.348,7.129-11.171,13.898-16.308,21.177
	c-5.117,7.25-7.615,16.463-15.803,21.425c-0.845,0.512-0.858,2.461-1.257,3.744c0.657,0.575,1.314,1.151,1.971,1.726
	c3.73-3.53,7.605-6.915,11.15-10.63c3.878-4.063,7.461-8.421,11.151-12.671c1.861-2.143,3.915-4.164,5.466-6.526
	c6.863-10.453,13.193-21.295,20.456-31.443c6.342-8.861,13.758-16.913,20.542-25.453c5.561-6.999,10.855-14.22,16.336-21.286
	c4.294-5.536,8.131-11.612,13.164-16.344c10.434-9.809,18.562-21.92,30.99-29.888c6.251-4.008,11.353-9.89,18.698-12.581
	c2.629-0.963,4.674-3.59,6.985-5.458c-0.372-0.707-0.744-1.415-1.116-2.122c-1.955,0.337-4.214,0.143-5.811,1.101
	c-7.254,4.351-14.295,9.072-21.466,13.571c-6.406,4.019-12.569,10.311-19.41,11.251c-7.903,1.085-12.52,5.274-17.239,10.107
	c-31.384,32.14-59.59,67.13-87.189,102.635c-2.675,3.441-5.12,7.809-1.579,13.487C11.873,429.24,17.84,424.946,20.824,419.069z
	 M248.179,183.306c7.603,1.301,16.283,0.488,22.644,4.045c17.101,9.565,38.186,8.754,53.529,22.29
	c15.626,2.666,27.498,12.442,39.172,22.232c8.766,7.352,19.64,12.631,24.827,23.812c4.482,9.662,12.254,16.362,19.417,23.653
	c12.648,12.873,25.128,25.924,37.992,38.566c5.352,5.259,11.509,9.661,17.301,14.452c0.479-0.531,0.957-1.063,1.436-1.594
	c-18.633-28.41-47.778-47.24-67.857-74.332c0.587-0.599,1.173-1.198,1.76-1.798c20.263,18.848,40.525,37.696,60.788,56.544
	c0.186-7.875-3.905-12.326-8.679-16.637c-6.59-5.952-12.703-12.455-19.067-18.672c-3.714-3.629-7-8.151-11.381-10.548
	c-12.547-6.865-21.126-19.738-35.3-23.995c-0.571-0.171-0.992-0.844-1.497-1.265c-12.706-10.567-24.514-22.4-40.088-28.86
	c-4.982-2.066-10.829-3.726-14.266-7.493c-5.1-5.591-11.139-6.848-17.676-8.381c-3.657-0.858-6.981-3.154-10.491-4.715
	c-4.456-1.981-8.802-4.507-13.465-5.648c-6.022-1.475-12.858-0.515-18.356-2.942c-8.487-3.747-16.515-3.826-25.457-0.356
	C245.033,182.227,246.563,183.03,248.179,183.306z M128.668,582.606c7.261,1.011,13.809,3.785,20.268,7.362
	c5.335,2.955,11.288,4.864,17.121,6.73c11.485,3.674,23.048,7.104,34.641,10.405c3.911,1.114,8.035,1.421,12.022,2.29
	c9.183,2,18.801,2.971,27.362,6.556c6.675,2.795,12.37,4.057,19.123,1.583c2.644-0.969,5.896-1.349,8.618-0.764
	c17.19,3.693,34.385,2.594,51.577,0.471c6.86-0.847,13.643-2.342,20.461-3.542c0.034-0.815,0.067-1.631,0.101-2.446
	c-3.948-0.356-8.022-1.532-11.822-0.921c-14.126,2.269-28.168,3.732-42.476,1.578c-5.963-0.898-12.115-0.465-18.179-0.693
	c-9.469-0.355-19.166,0.437-28.352-1.411c-14.962-3.011-29.575-7.819-44.364-11.755c-9.481-2.523-19.676-3.406-28.372-7.586
	c-13.598-6.536-26.531-14.432-40.66-20.041c-9.021-3.581-17.094-9.603-26.019-13.51c-10.681-4.676-21.254-11.274-33.845-6.395
	c-1.417,0.549-3.376-0.378-5.086-0.604c-11.759-1.548-22.619,0.753-32.275,8.612c5.801,0.35,11.495-0.093,17.033-1.291
	c12.982-2.808,25.346,0.955,37.843,3.275c3.557,0.66,8.072,0.967,10.254,3.293c4.791,5.107,11.121,5.405,16.731,7.938
	c5.971,2.695,11.394,6.659,17.056,10.068C127.841,582.073,128.254,582.34,128.668,582.606z M73.559,83.598
	c2.866-0.648,5.826-1.018,8.578-1.998c6.628-2.36,13.172-4.971,19.723-7.552c2.375-0.935,4.687-2.044,7.007-3.121
	c3.523-1.636,6.951-3.514,10.552-4.941c18.373-7.284,36.782-14.472,55.204-21.626c1.093-0.425,2.408-0.241,3.617-0.369
	c8.165-0.859,16.427-1.197,24.469-2.731c8.97-1.711,17.673-0.723,26.514,0.437c7.207,0.945,14.522,2.202,21.711,1.814
	c7.996-0.431,15.348,0.341,22.681,3.78c5.021,2.355,10.499,3.793,15.879,5.226c9.63,2.564,20.411,0.788,28.768,8.28
	c1.107,0.993,3.324,0.61,4.972,1.069c3.709,1.033,7.559,1.792,11.039,3.378c12.547,5.719,24.964,11.735,37.431,17.638
	c0.333-0.654,0.667-1.307,1-1.961c-2.025-2.239-3.64-5.474-6.143-6.549c-12.129-5.211-21.879-16.487-36.57-15.267
	c-0.54,0.045-1.136-0.536-1.696-0.845c-13.996-7.726-28.222-14.754-44.481-15.91c-2.793-0.198-5.561-0.801-8.332-1.265
	c-21.729-3.64-43.25-9.638-65.636-5.572c-2.697,0.49-5.611-0.358-8.429-0.465c-3.641-0.139-7.483-0.96-10.897-0.089
	c-15.154,3.866-30.248,8.014-45.238,12.497c-9.704,2.902-19.455,5.934-28.713,10.023c-13.462,5.947-26.543,12.811-39.666,19.53
	c-1.711,0.876-2.708,3.209-4.035,4.868C73.098,82.451,73.329,83.024,73.559,83.598z M222.584,25.573
	c8.037,0.343,16.193-0.689,24.126,0.3c10.61,1.322,21.102,3.822,31.557,6.214c8.887,2.033,17.642,4.668,26.474,6.961
	c5.622,1.459,13.028,0.95,16.588,4.509c10.253,10.248,25.028,9.002,35.928,16.826c0.191,0.137,0.765-0.283,2.086-0.817
	c-2.576-2.686-4.666-5.4-7.249-7.472c-15.584-12.5-34.594-16.057-53.087-20.901c-9.937-2.603-19.939-4.951-29.877-7.551
	c-16.058-4.201-32.298-6.531-48.918-5.587c-3.594,0.204-7.233-0.219-10.806,0.134c-12.648,1.25-25.695,1.121-37.817,4.456
	c-19.525,5.372-38.533,12.811-57.548,19.965c-5.885,2.214-11.069,6.362-16.599,9.578c-3.325,1.934-6.516,4.641-10.099,5.438
	c-4.234,0.942-5.013,3.219-5.376,7.583c8.18-3.342,15.708-6.435,23.249-9.495c13.063-5.301,25.263-12.525,39.773-14.446
	c7.474-0.99,14.384-6.431,19.845-9.045c17.228-3.068,33.001-5.878,49.749-8.86C216.663,23.968,219.596,25.446,222.584,25.573z
	 M64.599,116.605c2.113-0.265,4.466-0.012,6.289-0.898c4.172-2.027,7.886-5.137,12.154-6.838c5.664-2.258,11.798-3.261,17.517-5.399
	c9.262-3.463,18.267-7.645,27.538-11.082c8.062-2.989,16.318-5.442,24.528-7.997c12.82-3.99,25.475-9.846,38.571-11.225
	c12.624-1.329,25.384-4.595,38.456-2.058c14.702,2.854,30.558-1.77,44.407,7.083c0.849,0.543,2.115,0.382,3.176,0.603
	c9.684,2.018,19.632,3.201,28.985,6.275c13.467,4.425,26.448,10.377,39.744,15.376c6.45,2.425,13.146,4.163,19.731,6.212
	c0.392-0.901,0.785-1.801,1.177-2.702c-3.919-2.414-7.589-5.528-11.808-7.103c-9.842-3.674-19.993-6.47-29.931-9.89
	c-6.693-2.303-13.095-5.585-19.877-7.502c-11.767-3.326-23.943-5.237-35.568-8.975c-33.06-10.631-66.052-5.151-99.044-0.318
	c-4.231,0.62-7.981,4.118-12.175,5.654c-14.353,5.256-28.798,10.248-43.22,15.305c-5.301,1.859-10.67,3.52-15.944,5.451
	c-3.982,1.458-7.914,3.088-11.778,4.849c-5.251,2.394-10.462,4.892-15.6,7.528c-2.945,1.511-5.712,3.385-8.559,5.095
	C63.778,114.901,64.189,115.753,64.599,116.605z M85.437,95.726c2.032-1.158,3.502-3.554,5.602-4.344
	c5.802-2.182,11.995-3.34,17.688-5.753c17.289-7.326,34.412-15.06,51.61-22.609c1.173-0.515,2.413-1.013,3.664-1.175
	c11.017-1.431,22.044-2.777,33.066-4.17c1.072-0.136,2.124-0.598,3.189-0.611c9.645-0.125,19.29-0.234,28.935-0.219
	c1.919,0.003,3.974,1.172,5.733,0.76c11.447-2.679,22.339,0.182,33.216,3.14c5.326,1.449,10.476,4.328,15.838,4.732
	c12.368,0.933,23.908,3.476,33.787,11.662c0.868,0.719,2.522,0.361,3.746,0.728c7.638,2.291,15.286,4.553,22.865,7.033
	c2.446,0.801,4.619,2.86,7.059,3.171c1.852,0.236,3.93-1.386,5.907-2.181c-14.68-7.4-28.893-12.54-42.657-18.725
	c-13.817-6.209-29.723-5.374-42.779-13.854c-0.847-0.55-2.092-0.574-3.163-0.633c-8.652-0.475-17.316-0.75-25.956-1.386
	c-7.072-0.52-14.101-1.813-21.175-2.124c-13.286-0.583-26.869-2.874-39.076,5.299c-0.736,0.493-2,0.098-2.994,0.264
	c-4.999,0.837-10.114,1.277-14.958,2.686c-10.378,3.019-20.613,6.551-30.908,9.867c-1.412,0.455-2.882,0.757-4.244,1.333
	c-11.568,4.887-23.184,9.663-34.65,14.792c-8.748,3.913-17.297,8.291-25.934,12.462C75.384,100.916,80.499,98.54,85.437,95.726z
	 M244.37,86.665c9.472-2.342,17.626,0.343,26.344,3.871c10.418,4.216,21.302,8.1,33.041,6.038c0.922-0.162,2.083,0.97,3.105,1.551
	c1.851,1.052,3.681,2.143,5.519,3.218c0.612-1.33,2.086-3.287,1.677-3.873c-1.275-1.83-3.038-3.851-5.02-4.506
	c-4.106-1.357-8.519-1.708-12.729-2.785c-8.383-2.144-16.852-4.077-25.027-6.883c-8.182-2.808-16.606-0.076-25.108-2.913
	c-8.057-2.688-17.551-1.708-26.331-1.099c-13.138,0.912-26.398,1.969-39.242,4.731c-11.349,2.441-22.78,5.263-32.15,13.91
	c-7.105,6.556-15.704,11.585-24.098,16.467c-7.006,4.075-14.695,6.914-22.051,10.369c-7.637,3.586-14.98,8.062-22.912,10.701
	c-12.306,4.094-22.503,11.233-32.622,20.317c1.36-0.102,2.148,0.028,2.778-0.235c11.741-4.917,23.545-9.688,35.165-14.889
	c11.409-5.106,22.357-11.406,34.008-15.793c10.387-3.911,19.231-9.355,27.524-16.864c6.279-5.686,14.307-9.472,21.856-13.52
	c3.224-1.729,7.168-2.252,10.859-2.84c12.54-1.997,25.079-4.784,37.687-5.224c6.497-0.227,12.806,1.229,17.195-2.081
	C238.16,85.374,241.581,87.355,244.37,86.665z M202.17,133.512c5.906-0.436,11.805-0.983,17.717-1.287
	c4.553-0.234,9.17,0.25,13.672-0.311c11.828-1.473,23.226-0.287,34.453,3.915c4.592,1.719,9.792,1.797,14.308,3.655
	c5.261,2.165,10.108,5.404,15.073,8.287c3.43,1.991,6.615,4.474,10.167,6.176c3.84,1.84,8.148,2.678,11.947,4.586
	c5.163,2.593,10.023,5.814,15.04,8.715c3.16,1.827,6.527,3.326,9.528,5.387c6.826,4.688,12.894,11.335,20.361,14.041
	c9.31,3.374,15.905,10.175,23.606,15.399c14.521,9.85,27.979,21.324,42.121,31.78c3.694,2.731,8.283,4.195,12.462,6.242
	c0.357-0.62,0.714-1.241,1.071-1.861c-1.035-1.633-1.695-3.939-3.164-4.795c-15.484-9.033-25.926-24.512-42.093-33.021
	c-13.747-7.235-25.877-17.617-39.067-26.044c-8.018-5.123-16.763-9.044-25.043-13.759c-6.511-3.708-12.642-8.14-19.259-11.619
	c-4.957-2.607-10.49-4.039-15.641-6.295c-10.308-4.515-20.143-11.118-30.879-13.418c-14.914-3.194-30.474-4.201-45.761-4.229
	c-8.627-0.016-17.265,3.789-25.879,5.953c-0.468,0.118-0.757,0.977-2.237,3.02C198.06,133.796,200.116,133.664,202.17,133.512z
	 M98.512,571.783c-2.503-2.255-6.735-2.543-10.206-3.63c-5.87-1.839-12.133-2.831-17.568-5.558
	c-9.442-4.738-23.626-2.17-31.507,7.845c3.075-0.182,5.119-0.102,7.08-0.475c2.061-0.392,4.262-2.136,6.022-1.697
	c7.675,1.913,15.209,4.417,22.802,6.678c1.429,0.425,2.942,1.161,4.335,1.003c6.785-0.767,11.974,2.581,17.394,6.037
	c3.122,1.991,7.015,2.824,10.653,3.829c2.552,0.705,5.506,0.245,7.854,1.298c9.788,4.39,19.369,9.262,29.127,13.727
	c3.515,1.608,7.526,2.135,10.946,3.898c17.203,8.866,36.417,11.61,54.151,18.825c0.972,0.395,2.137,0.436,3.208,0.412
	c9.49-0.218,18.264,3.334,27.282,5.505c6.099,1.469,11.751,2.328,16.972-3.997c-3.293-1.017-5.88-2.093-8.57-2.585
	c-4.661-0.852-9.464-0.986-14.065-2.06c-9.624-2.246-19.144-4.955-28.729-7.384c-7.64-1.936-15.371-3.522-22.945-5.689
	c-3.854-1.103-7.405-3.269-11.177-4.726c-4.803-1.856-9.722-3.395-14.535-5.228c-5.204-1.982-10.55-3.736-15.448-6.347
	c-4.57-2.436-8.633-5.865-12.919-8.857c-0.413-0.267-0.826-0.533-1.239-0.8C117.15,580.439,106.919,579.358,98.512,571.783z
	 M391.45,310.842c0.598,0.604,0.97,1.439,1.472,2.148c5.066,7.148,9.142,15.412,15.397,21.224
	c18.065,16.784,30.729,38.123,47.203,56.163c2.761,3.024,7.078,4.562,10.676,6.787c0.445-0.626,0.891-1.252,1.336-1.878
	c-2.694-11.442-15.242-15.56-18.777-26.736c5.072,3.992,10.144,7.985,15.216,11.977c0.823-0.978,1.646-1.957,2.469-2.935
	c-5.385-5.855-10.413-12.123-16.274-17.428c-4.277-3.871-5.035-3.293-8.731-0.1c-12.666-14.944-25.332-29.87-37.975-44.817
	c-3.827-4.524-7.754-8.974-11.35-13.686c-18.911-24.776-40.706-46.502-65.718-64.765c-4.539-3.314-9.698-6.272-16.291-2.938
	c26.997,15.624,50.76,34.58,66.706,62.18l0.085,0.237C381.751,301.125,386.62,305.963,391.45,310.842z M463.303,346.154
	c-3.054-4.507-5.589-9.528-9.269-13.417c-8.26-8.727-17.315-16.666-25.629-25.343c-10.116-10.559-20.468-21-29.52-32.479
	c-13.165-16.695-28.412-30.975-45.096-43.678c-6.39-4.865-13.841-8.334-20.982-12.095c-9.621-5.067-18.472-11.5-29.533-13.869
	c-11.756-2.517-23.08-7.074-34.743-10.142c-5.599-1.473-11.532-1.758-17.341-2.155c-1.486-0.102-3.077,1.415-4.62,2.188
	c0.107,0.726,0.214,1.452,0.321,2.178c8.313,2.001,16.552,4.435,24.953,5.912c17.109,3.008,34.261,5.597,49.046,16.021
	c1.735,1.223,4.024,1.589,5.913,2.625c8.87,4.864,19.218,8.194,26.232,15.065c18.436,18.061,35.404,37.689,52.984,56.666
	c2.811,3.035,5.91,5.801,8.608,8.931c2.561,2.971,4.543,6.476,7.181,9.362c6.925,7.576,13.968,15.047,21.173,22.344
	c3.114,3.154,6.687,5.852,10.159,8.615c2.496,1.987,5.17,3.739,7.765,5.596C461.703,347.705,462.503,346.929,463.303,346.154z
	 M297.629,152.971c-3.49-1.857-6.792-4.483-10.505-5.433c-13.165-3.369-26.343-7.339-39.757-8.851
	c-13.459-1.517-27.212-0.633-40.824-0.28c-7.084,0.184-14.133,2.034-21.212,2.146c-7.897,0.125-15.442,0.096-22.148,5.505
	c-2.589,2.089-6.385,2.552-9.519,4.008c-13.273,6.166-26.476,12.49-39.764,18.622c-5.403,2.494-10.867,4.914-16.467,6.879
	c-5.433,1.905-11.713,2.087-16.485,4.982c-8.079,4.9-15.581,10.242-24.752,13.545c-7.42,2.672-13.456,9.388-20.05,14.387
	c-0.814,0.617-1.283,1.709-2.042,2.762c6.767-1.932,13.057-3.43,19.129-5.571c3.82-1.347,7.431-3.457,10.93-5.58
	c6.849-4.155,13.349-8.953,20.374-12.75c7.542-4.077,15.502-7.351,23.313-10.901c12.891-5.858,25.746-11.808,38.73-17.445
	c20.251-8.79,41.299-14.717,63.344-15.589c12.108-0.479,24.276,0.563,36.415,0.991c15.062,0.531,29.548,3.416,43.047,10.702
	c2.058,1.111,4.79,0.918,7.21,1.328C296.94,155.275,297.285,154.123,297.629,152.971z M2.358,390.076
	c4.893-3.426,10.447-6.182,14.548-10.411c9.728-10.031,19.839-19.988,27.748-31.452c6.349-9.202,13.504-17.037,21.645-24.361
	c4.489-4.038,8.06-9.136,12.098-13.707c1.563-1.77,3.083-3.675,4.951-5.052c10.235-7.543,20.662-14.818,30.807-22.483
	c2.287-1.728,3.715-4.646,5.539-7.015c1.241-1.612,2.36-3.344,3.744-4.815c10.494-11.149,24.922-15.314,37.957-21.83
	c7.281-3.64,15.379-5.577,23.122-8.243c6.433-2.215,7.492-3.217,8.392-9.917c-11.559,4.889-22.238,9.377-32.883,13.947
	c-1.374,0.59-2.484,1.835-3.865,2.399c-7.599,3.104-15.768,5.181-22.723,9.376c-6.883,4.151-12.408,10.591-18.793,15.682
	c-11.935,9.516-24.326,18.453-35.994,28.291c-5.885,4.962-10.595,11.377-15.852,17.119c-2.333,2.548-4.609,5.162-7.082,7.561
	c-4.682,4.541-9.821,8.635-14.171,13.477c-8.564,9.532-14.692,20.993-25.607,28.807C9.259,372.23,5.223,380.865,0,387.769
	C0.786,388.538,1.572,389.307,2.358,390.076z M225.319,116.572c11.5,1.608,23.046-0.407,34.746,3.468
	c12.573,4.164,26.697,3.598,36.662,14.629c0.678,0.75,1.895,1.177,2.931,1.376c19.547,3.757,34.729,17.034,52.312,25.066
	c0.702,0.321,1.024,1.42,1.691,1.926c2.528,1.916,5.025,3.908,7.722,5.548c3.111,1.891,6.595,3.17,9.612,5.19
	c7.935,5.313,15.673,10.933,23.549,16.341c9.653,6.629,19.326,13.23,29.072,19.715c4.961,3.301,10.101,6.321,15.161,9.469
	c0.34-0.436,0.679-0.872,1.019-1.308c-1.454-1.727-2.681-3.747-4.4-5.131c-8.616-6.94-17.326-13.759-26.071-20.529
	c-5.677-4.395-11.252-8.988-17.262-12.86c-10.778-6.943-21.915-13.3-32.778-20.11c-9.557-5.991-18.57-13.004-28.489-18.247
	c-16.078-8.498-32.695-15.931-49.105-23.77c-1.705-0.814-3.499-1.655-5.331-1.932c-14.324-2.161-28.659-4.248-43.008-6.226
	c-5.725-0.789-11.552-1.446-16.809,5.444C220.362,115.491,222.815,116.222,225.319,116.572z M342.291,30.745
	c-7.354-2.839-14.68-5.754-22.074-8.48c-3.228-1.19-6.574-2.064-9.899-2.957c-15.17-4.074-30.174-9.148-45.574-11.884
	c-18.894-3.357-38.108-4.882-57.21-6.939c-13.816-1.487-27.061,0.295-39.478,7.455c-4.221,2.434-9.288,3.337-13.97,4.934
	c-9.75,3.325-18.913,7.701-26.226,15.794c7.932-1.225,15.592-3.2,23.041-5.804c4.88-1.706,9.262-5.143,14.207-6.36
	c10.889-2.68,21.579-6.844,33.2-5.542c3.569,0.4,7.319-0.48,10.938-1.076c3.982-0.656,7.916-2.38,11.857-2.334
	c5.192,0.061,10.356,1.509,15.557,2.144c4.91,0.599,9.88,0.72,14.776,1.404c8.058,1.126,16.075,2.553,24.114,3.818
	c2.095,0.33,4.325,0.178,6.293,0.857c7.617,2.625,14.993,7.032,22.76,7.877c9.2,1.001,16.954,4.469,24.996,8.336
	c3.548,1.706,7.995,1.457,12.034,2.095C341.854,32.97,342.072,31.858,342.291,30.745z M24.221,284.133
	c5.438-5.902,11.07-11.128,19.208-12.896c1.866-0.405,3.399-2.562,5.016-3.995c3.709-3.285,7.183-6.883,11.096-9.886
	c11.061-8.486,24.221-15.062,32.934-25.537c9.16-11.014,21.92-14.638,32.45-22.424c7.501-5.546,18.178-6.378,26.999-10.334
	c16.878-7.57,34.774-10.983,52.631-14.62c3.684-0.75,7.658-0.633,11.423-0.211c7.199,0.808,14.024,0.703,21.422-5.505
	c-4.089-0.779-6.74-1.943-9.227-1.651c-16.772,1.966-33.603,3.69-50.215,6.661c-7.657,1.37-14.929,5.207-22.257,8.225
	c-11.137,4.587-21.82,10.851-33.333,13.828c-15.982,4.132-27.896,13.596-38.951,25.041c-8.261,8.552-16.923,16.482-28.259,20.639
	c-1.396,0.512-2.775,1.292-3.926,2.246c-5.853,4.85-11.582,9.856-17.442,14.698c-7.212,5.96-14.798,11.542-17.759,21.85
	C18.787,288.243,21.94,286.608,24.221,284.133z M129.867,610.348c2.567,0.354,5.255,0.327,7.68,1.128
	c11.87,3.921,23.621,8.221,35.512,12.068c6.952,2.249,14.193,3.581,21.113,5.915c6.461,2.18,12.474,6.099,19.042,7.509
	c7.99,1.716,16.354,1.607,24.557,2.287c0.215-0.795,0.429-1.59,0.644-2.385c-1.453-1.374-2.723-3.604-4.39-3.976
	c-7.969-1.778-16.065-2.952-24.078-4.539c-5.413-1.072-10.935-1.975-16.11-3.827c-13.083-4.682-26.032-9.763-38.968-14.861
	c-14.079-5.549-28.099-11.257-42.114-16.972c-16.81-6.855-33.639-13.7-51.84-15.607c-5.01-0.525-10.118-0.08-15.181-0.08
	c-0.368,0.973-0.736,1.945-1.104,2.918c1.98,1.34,3.803,3.355,5.973,3.884c5.004,1.221,10.451,0.927,15.234,2.651
	c21.499,7.75,44.645,10.959,64.209,24.08L129.867,610.348z M400.001,144.665c-2.803-1.755-5.443-3.915-8.444-5.179
	c-5.732-2.415-11.87-3.883-17.468-6.558c-5.97-2.852-10.923-8.009-18.425-6.939c-1.604,0.229-3.476-1.48-5.22-2.307
	c-5.867-2.782-11.603-5.917-17.633-8.262c-6.777-2.635-13.809-4.588-20.748-6.781c-4.046-1.279-8.069-2.735-12.204-3.601
	c-7.8-1.635-15.705-2.747-23.509-4.364c-7.398-1.533-14.647-4.389-22.094-5.009c-29.652-2.467-59.134-0.973-88.081,6.604
	c-2.3,0.602-3.979,3.686-5.946,5.617c2.551,0.003,5.167,0.39,7.64-0.057c10.592-1.913,21.069-5.095,31.724-5.88
	c13.185-0.971,26.512-0.248,39.765,0.172c7.964,0.253,15.95,0.986,23.843,2.109c11.276,1.605,22.551,3.403,33.687,5.798
	c10.049,2.161,20.348,4.16,29.753,8.158c13.887,5.904,26.731,14.406,40.685,20.099c9.887,4.034,20.873,5.253,31.369,7.728
	C399.13,145.564,399.566,145.115,400.001,144.665z M29.235,246.503c7.372-4.307,15.76-7.5,21.807-13.262
	c5.159-4.916,10.206-8.097,16.822-10.106c7.56-2.296,14.896-5.582,22.034-9.071c15.167-7.415,29.681-16.475,45.315-22.581
	c19.093-7.457,38.918-13.132,58.716-18.445c8.56-2.297,17.837-2.013,26.81-2.422c6.409-0.292,12.852,0.24,19.281,0.353
	c3.15,0.056,6.336-0.313,9.445,0.047c9.649,1.119,19.269,2.496,28.9,3.773c0.147-0.725,0.294-1.45,0.441-2.176
	c-2.252-1.198-4.389-2.802-6.781-3.503c-4.138-1.214-8.406-2.049-12.668-2.717c-6.937-1.087-14.672-4.285-20.693-2.277
	c-8.574,2.86-15.931-2.353-23.793-0.508c-3.574,0.839-7.128,1.766-10.697,2.628c-1.439,0.347-2.889,0.655-4.343,0.929
	c-4.307,0.812-8.632,1.53-12.923,2.42c-2.456,0.51-4.837,1.397-7.292,1.914c-3.767,0.793-7.856,0.721-11.31,2.218
	c-27.562,11.951-57.161,18.928-82.892,35.359c-1.076,0.687-2.425,0.911-3.587,1.479c-7.362,3.601-14.795,7.065-22.023,10.93
	c-4.123,2.204-7.74,5.399-11.869,7.586c-7.587,4.019-15.966,6.845-20.142,15.358C28.275,245.12,28.755,245.812,29.235,246.503z
	 M290.783,557.115c12.898-0.459,25.937-0.59,38.621-2.718c23.132-3.88,46.757-6.758,65.737-23.535
	c3.451-3.051,9.172-3.418,13.845-5.024c0.328,0.883,0.656,1.765,0.984,2.647c-4.002,1.696-7.97,3.483-12.014,5.066
	c-6.495,2.543-7.849,3.811-9.053,10.757c8.234-3.618,15.479-6.693,22.633-9.975c7.379-3.384,14.414-7.776,22.051-10.301
	c16.842-5.568,16.958-5.202,20.236-12.581c-14.373,4.805-27.708,9.263-41.43,13.851c0.436-0.944,0.541-1.402,0.807-1.714
	c6.687-7.838,15.502-10.726,25.285-11.841c2.215-0.252,4.216-2.464,6.316-3.774c-2.32-1.164-4.548-2.906-6.988-3.306
	c-1.915-0.314-4.074,1.095-6.152,1.629c-21.599,5.552-38.772,20.373-58.836,29.358c-29.217,13.084-58.122,23.408-91.01,13.639
	C282.278,555.328,286.418,557.27,290.783,557.115z M291.417,180.406c2.928,1.283,6.514,1.071,9.352,2.482
	c17.263,8.585,34.528,17.187,51.512,26.329c8.331,4.484,16.446,9.611,23.971,15.385c13.466,10.332,26.408,21.377,39.574,32.119
	c10.433,8.512,20.789,17.126,31.382,25.423c2.021,1.583,4.99,1.902,7.522,2.805c0.263-0.697,0.525-1.395,0.788-2.092
	c-2.115-2.403-4.023-5.047-6.38-7.169c-11.983-10.784-23.704-21.927-36.255-31.982c-11.129-8.916-24.258-15.413-34.627-25.08
	c-12.675-11.817-28.207-18.304-42.131-27.679c-0.526-0.354-1.233-0.413-1.829-0.673c-10.042-4.398-20.111-8.737-30.108-13.24
	c-6.132-2.762-12.118-6.061-20.477-2.204C286.799,177.129,288.886,179.297,291.417,180.406z M263.061,157.64
	c6.381,2.302,12.754,6.441,19.146,6.473c9.383,0.047,17.145,3.349,25.206,7.127c19.936,9.342,40.855,16.735,58.359,30.843
	c18.446,14.867,39.351,26.372,56.332,43.268c3.051,3.036,6.902,5.348,10.658,7.494c4.07,2.326,8.461,4.067,12.712,6.064
	c0.533-0.852,1.066-1.704,1.599-2.556c-4.526-4.147-8.753-8.712-13.634-12.363c-13.835-10.351-27.927-20.342-41.936-30.449
	c-12.147-8.763-23.952-18.094-36.567-26.088c-16.907-10.714-34.131-21.11-53.984-25.429c-4.828-1.05-9.734-1.721-14.564-2.762
	c-7.48-1.613-14.924-3.394-22.384-5.103C263.69,155.318,263.376,156.479,263.061,157.64z M27.856,232.248
	c8.319-4.269,16.564-8.697,24.97-12.777c26.231-12.73,50.676-29.008,78.11-39.464c17.923-6.831,35.337-14.76,54.264-18.674
	c21.177-4.38,42.338-6.411,63.87-3.791c1.592,0.194,3.419-1.629,5.136-2.515c-1.736-1.204-3.466-3.446-5.21-3.459
	c-34.178-0.244-68.22-0.823-100.051,16.075c-16.246,8.624-33.599,15.538-51.104,21.071c-15.078,4.765-26.459,16.155-41.371,20.94
	c-6.64,2.131-12.599,6.697-18.614,10.568c-4.23,2.722-8.033,6.135-12.027,9.24C26.505,230.39,27.18,231.319,27.856,232.248z
	 M130.052,610.549c-6.3,1.289-11.841-0.213-17.07-4.117c-2.74-2.046-6.021-3.646-9.295-4.577c-10.137-2.88-20.35-5.513-30.606-7.914
	c-8.623-2.018-17.308-5.316-26.362-0.258c2.693,1.692,5.554,2.642,8.468,3.369c1.947,0.485,4.05,0.394,5.942,1.011
	c5.64,1.839,11.146,4.129,16.824,5.825c9.983,2.983,20.203,5.205,30.047,8.588c9.456,3.25,18.492,7.751,27.837,11.366
	c9.313,3.603,20.413,1.567,28.463,9.34c0.361,0.349,1.296-0.008,1.907,0.17c5.079,1.481,10.118,3.114,15.223,4.492
	c4.077,1.101,8.22,1.957,12.352,2.835c2.815,0.598,5.744,0.767,8.478,1.613c9.157,2.83,18.18,6.141,27.41,8.674
	c2.578,0.707,5.694-0.635,8.563-1.037c-2.737-2.942-5.506-4.707-8.522-5.607c-6.798-2.028-13.72-3.621-20.589-5.404
	c-6.17-1.602-12.326-3.259-18.507-4.813c-2.383-0.599-4.933-0.663-7.209-1.52c-8.154-3.07-16.269-6.26-24.312-9.622
	c-9.788-4.091-19.489-8.401-29.227-12.616C129.867,610.348,130.044,610.541,130.052,610.549z M415.753,167.973
	c-1.394-2.058-2.379-4.731-4.268-6.044c-3.905-2.713-8.168-4.992-12.509-6.919c-6.5-2.885-13.075-5.717-19.843-7.815
	c-5.848-1.812-12.438-1.55-17.949-3.983c-15.811-6.98-31.124-15.131-46.883-22.243c-5.384-2.43-11.51-3.142-17.296-4.639
	c-0.319,0.91-0.637,1.82-0.956,2.729c8.81,3.961,17.338,8.969,26.519,11.551c7.339,2.064,13.693,4.907,19.452,9.785
	c2.125,1.8,4.824,2.873,7.19,4.395c6.117,3.934,12.309,7.764,18.258,11.953c6.56,4.62,12.624,10.015,19.37,14.309
	c8.738,5.562,18.094,10.102,26.88,15.592c5.947,3.716,11.369,8.309,17.027,12.509c0.637-0.48,1.274-0.959,1.911-1.439
	c-1.365-2.94-1.945-7.218-4.218-8.611c-19.159-11.745-36.211-27.141-57.601-35.059c-1.546-0.572-2.747-2.121-4.109-3.215
	c0.382-0.727,0.764-1.453,1.146-2.18c17.626,1.279,29.49,17.311,46.233,20.849C414.656,168.99,415.204,168.482,415.753,167.973z
	 M45.276,176.036c6.615-2.835,13.257-5.605,19.839-8.518c16.296-7.21,30.21-18.836,46.397-26.228
	c3.019-1.379,6.65-1.414,9.588-2.911c8.482-4.321,16.506-9.663,25.189-13.461c6.57-2.874,13.828-4.197,20.867-5.82
	c4.374-1.008,8.893-1.489,13.375-1.845c6.356-0.505,12.736-0.723,19.109-0.974c4.675-0.184,9.941,2.383,14.729-4.727
	c-5.444-0.517-9.804-1.657-13.993-1.194c-13.513,1.496-26.925,3.996-40.449,5.322c-12.72,1.247-23.831,5.718-33.803,13.801
	c-2.623,2.126-6.077,3.24-9.241,4.596c-8.822,3.781-17.883,7.036-26.497,11.252c-12.078,5.911-23.948,12.298-35.674,18.912
	c-4.075,2.299-7.458,5.88-11.157,8.876C44.128,174.09,44.702,175.063,45.276,176.036z M398.507,634.355
	c-2.345,0-4.747-0.337-7.026,0.061c-7.763,1.357-15.45,3.189-23.227,4.445c-15.927,2.573-31.835,5.471-47.86,7.146
	c-15.222,1.591-30.579,1.903-45.886,2.555c-6.5,0.277-13.036-0.259-19.524,0.131c-1.569,0.094-3.01,2.397-4.51,3.684
	c1.386,1.189,2.63,3.109,4.185,3.424c4.011,0.812,8.167,1.307,12.251,1.221c9.319-0.195,18.64-0.651,27.939-1.314
	c6.826-0.486,14.117-0.123,20.318-2.522c11.329-4.383,22.873-4.734,34.605-5.66c8.034-0.634,15.914-3.316,23.86-5.098
	c1.449-0.325,2.864-0.928,4.325-1.059c5.42-0.486,10.878-0.629,16.266-1.341c1.725-0.228,3.278-1.821,4.909-2.79
	C398.924,636.276,398.715,635.315,398.507,634.355z M13.602,306.179c36.929-26.477,74.849-51.631,108.603-85.233
	c-2.823,0.538-4.217,0.416-5.127,1.036c-12.639,8.617-26.939,15.595-37.399,26.436c-15.89,16.468-36.637,25.765-52.813,41.396
	c-4.995,4.827-9.999,9.645-14.999,14.468C12.446,304.914,13.024,305.547,13.602,306.179z M17.403,537.642
	c2.892-0.922,5.966-1.472,8.644-2.835c8.117-4.132,16.426-8.035,24.006-13.059c7.195-4.77,14.982-9.767,19.947-16.607
	c6.505-8.962,11.848-19.406,15.042-30.043c1.811-6.032,3.92-11.82,6.182-17.652c1.249-3.221,1.541-6.83,2.264-10.264
	c-0.853-0.261-1.706-0.523-2.559-0.784c-1.27,2.398-2.557,4.787-3.808,7.195c-9.671,18.612-15.317,39.668-30.809,54.736
	c-5.472,5.323-12.064,9.443-18.169,14.079c-0.306,0.232-0.841,0.201-1.27,0.203c-9.71,0.055-14.369,7.567-20.188,13.367
	C16.924,536.532,17.164,537.087,17.403,537.642z M359.771,629.085c-3.332-0.576-6.787-2.035-9.976-1.573
	c-12.466,1.803-24.957,3.717-37.23,6.54c-11.829,2.721-23.383,6.22-35.751,3.849c-8.656-1.659-17.41-2.882-26.17-3.817
	c-2.115-0.226-4.425,1.458-6.646,2.263c1.347,1.656,2.54,4.568,4.067,4.765c10.254,1.321,20.569,2.231,30.888,2.899
	c3.322,0.215,6.706-0.904,10.077-1.056c6.815-0.306,13.739,0.321,20.442-0.674c13.966-2.073,27.826-4.904,41.709-7.534
	c3.058-0.579,6.033-1.615,9.046-2.441C360.076,631.233,359.924,630.159,359.771,629.085z M125.648,220.502
	c7.871-2.03,14.72-2.626,20.496-5.486c27.527-13.632,56.886-17.42,86.907-18.356c2.666-0.083,5.307-1.013,9.118-1.783
	C228.134,180.478,136.016,206.716,125.648,220.502z M432.301,596.769c-11.666,1.796-23.365,3.403-34.987,5.459
	c-7.192,1.272-14.244,4.408-21.403,4.564c-8.177,0.178-15.211,2.621-22.276,6.114c-2.102,1.039-4.6,1.205-6.804,2.073
	c-2.512,0.989-4.945,2.232-7.272,3.612c-0.262,0.155,0.383,2.796,0.614,2.797c2.837,0.012,5.68-0.211,8.511-0.482
	c0.609-0.058,1.15-0.657,1.77-0.819c10.345-2.694,20.768-7.792,31.032-7.48c17.057,0.518,31.694-6.113,46.972-11.372
	c1.696-0.584,3.026-2.276,4.526-3.454C432.756,597.444,432.529,597.107,432.301,596.769z M119.892,158.505
	c2.299-1.581,4.647-3.094,6.887-4.759c3.909-2.905,7.427-6.581,11.691-8.723c8.853-4.448,18.083-8.115,27.173-12.068
	c0.849-0.369,2.224-0.999,2.643-0.64c4.201,3.595,7.629,0.339,11.388-0.974c4.807-1.678,9.767-2.89,14.628-4.414
	c2.669-0.837,5.271-1.9,7.903-2.861c-13.659-2.819-36.048,2.618-50.25,8.817c-13.467,5.878-25.653,15.649-41.544,15.061
	c-2.25-0.083-4.624,3.366-6.941,5.181c0.39,0.702,0.781,1.403,1.171,2.105c5.621-1.592,11.243-3.185,16.864-4.777
	c0.203,0.517,0.407,1.035,0.61,1.552c-1.145,1.472-2.291,2.945-3.436,4.417C119.083,157.116,119.488,157.811,119.892,158.505z
	 M60.785,128.562c-2.182,1.331-4.522,2.391-6.789,3.576c0.907,1.133,1.815,2.266,2.722,3.399
	c29.55-6.373,54.671-23.896,82.288-35.294C128.648,99.206,77.811,118.172,60.785,128.562z M40.908,195.049
	c10.004-5.351,19.731-11.368,30.088-15.871c10.838-4.712,22.377-7.712,33.407-12.004c3.785-1.473,6.959-4.587,10.412-6.951
	c-0.352-0.559-0.704-1.117-1.055-1.676c-7.396-0.336-12.573,9.623-21.25,5.482c2.643-2.506,4.871-4.618,7.099-6.73
	c-0.299-0.663-0.598-1.325-0.898-1.988c-2.227,0.509-4.775,0.475-6.629,1.617c-11.238,6.926-22.463,13.895-33.395,21.309
	c-6.723,4.56-12.916,9.937-19.347,14.946C39.863,193.805,40.385,194.427,40.908,195.049z M401.299,137.514
	c0.511-0.981,1.022-1.961,1.534-2.942c-2.593-1.965-4.93-4.553-7.82-5.793c-16.193-6.948-32.538-13.526-48.792-20.327
	c-6.361-2.662-12.573-5.7-18.949-8.321c-3.057-1.257-6.283-1.808-7.486,2.791C347.191,114.552,374.245,126.033,401.299,137.514z
	 M18.684,268.811c3.256-0.636,6.364-1.751,9.151-3.425c3.602-2.165,6.953-4.769,10.403-7.198c2.116-1.49,4.936-2.542,6.198-4.59
	c5.441-8.837,14.27-12.277,22.882-16.396c7.552-3.612,14.918-7.776,19.782-15.533C77.886,220.294,22.555,257.679,18.684,268.811z
	 M288.384,672.566c-5.934-0.382-11.371-0.732-16.809-1.082c0.013-0.689,0.027-1.379,0.04-2.069c2.961-1.656,5.922-3.312,8.882-4.967
	c-0.167-0.533-0.333-1.065-0.5-1.598c-4.394,0-8.787,0-12.457,0c-1.512,2.742-2.663,4.828-3.813,6.914
	c-0.693-0.425-1.386-0.851-2.079-1.276c0.945-2.025,1.889-4.051,2.873-6.159c-3.006-3.247-6.761-4.372-8.432-0.076
	c-1.458,3.747-0.782,8.519-0.436,12.786c0.228,2.808,1.544,5.525,2.373,8.282c-0.45,1.375,0.728,1.86,1.939,2.231
	c6.852,2.097,7.342,1.508,5.981-5.694c-0.429-2.271,0.15-4.742,0.31-7.964C275.176,679.208,283.332,679.491,288.384,672.566z
	 M53.934,304.186c-0.592-1.008-1.185-2.017-1.777-3.025c-2.012,0.74-4.358,1.032-5.982,2.295
	c-9.793,7.612-19.434,15.428-29.078,23.238c-0.78,0.632-1.114,1.806-1.802,2.595c-1.798,2.064-3.354,4.621-5.592,5.954
	c-4.374,2.606-7.19,5.586-5.281,13.314C21.474,333.275,37.704,318.73,53.934,304.186z M420.662,615.091
	c-19.837-0.606-37.732,7.981-56.533,13.003c0.802,4.488,2.791,5.893,6.919,4.833c9.088-2.333,18.921-1.923,26.946-8.157
	c1.185-0.921,3.373-0.369,5.008-0.83c6.224-1.753,12.412-3.641,18.614-5.478C421.298,617.339,420.98,616.215,420.662,615.091z
	 M333.254,619.573c-5.75,1.082-11.459,2.63-17.257,3.151c-13.439,1.208-26.923,1.899-40.385,2.851
	c-2.351,0.166-4.777,0.288-6.985,1.015c-1.032,0.34-1.625,2.074-2.417,3.175c1.085,0.743,2.133,2.052,3.262,2.129
	c4.103,0.281,8.293-0.294,12.34,0.273c6.986,0.979,13.408,0.279,20.199-2.2c5.579-2.036,12.134-1.077,18.106-2.248
	c4.813-0.943,9.401-3.085,14.089-4.695C333.89,621.874,333.572,620.723,333.254,619.573z M388.515,650.213
	c-7.531,6.622-15.763,8.98-25.307,7.98c-0.185-0.019-0.383,0.214-0.59,0.26c-5.035,1.109-10.117,2.029-15.094,3.363
	c-4.448,1.192-8.78,2.839-13.163,4.284c10.807,5.546,57.521-6.843,65.896-16.18C395.81,649.92,390.682,648.307,388.515,650.213z
	 M376.25,667.568c-14.316,2.807-28.618,5.694-42.895,8.704c-1.871,0.394-3.648,1.507-5.283,2.583
	c-0.273,0.18,0.193,2.588,0.683,2.741c1.759,0.547,3.758,1.038,5.517,0.711c10.552-1.96,21.096-3.996,31.574-6.33
	c5.828-1.298,12.347-1.372,17.597-8.458C380.077,667.518,378.1,667.205,376.25,667.568z M283.853,662.561
	c5.313,6.049,52.406,0.115,57.926-8.1C322.699,657.129,303.618,659.797,283.853,662.561z M139.939,675.113
	c-11.677-2.007-22.168-3.81-32.659-5.612c-0.159,0.631-0.318,1.263-0.477,1.894c7.91,3.289,15.821,6.578,25.33,10.532
	c-3.334,1.754-4.481,2.357-5.719,3.009c8.79,7.528,11.134,8.026,18.216,3.427C140.968,684.553,129.643,684.637,139.939,675.113z
	 M88.831,654.757c11.736,8.357,25.504,9.82,39.877,13.132c-2.176-7.489-3.935-8.827-9.661-8.765
	c-2.101,0.023-4.329,0.676-6.279,0.166c-7.791-2.04-15.496-4.424-23.232-6.681C89.301,653.325,89.066,654.041,88.831,654.757z
	 M275.007,698.315c-3.873-0.493-7.573-0.964-11.272-1.435c-0.038-0.564-0.077-1.128-0.115-1.692
	c1.915-1.243,3.829-2.487,6.623-4.301c-15.456-4.521-17.734-3.525-17.852,9.692C261.057,703.832,271.045,702.943,275.007,698.315z
	 M402.852,126.42c1.227-6.028-1.843-10.683-5.783-11.726c-8.233-2.18-14.789-11.847-26.49-6.71
	C382.365,114.717,392.48,120.495,402.852,126.42z M322.857,679.066c-12.291-1.412-23.899,7.118-36.489,2.707
	c-0.605-0.212-2.057,2.105-3.114,3.244c1.489,0.989,3.06,2.939,4.455,2.815c10.926-0.967,21.832-2.22,32.705-3.687
	c1.731-0.233,3.267-1.978,5.969-3.716C323.983,679.488,323.435,679.133,322.857,679.066z M384.065,646.953
	c-10.692-1.635-31.424,3.658-34.566,8.825C355.751,658.316,381.663,651.7,384.065,646.953z M323.912,667.445
	c-11.384,1.501-22.148,2.919-32.912,4.338C297.861,679.002,321.225,675.343,323.912,667.445z M308.029,692.782
	c-7.672,0.461-15.337,1.025-23.546,1.608c0.248-4.577-1.514-7.012-8.101-4.67c4.121,4.08,7.351,9.933,10.56,9.921
	c7.403-0.028,14.796-2.902,22.676-4.734C308.733,693.689,308.354,692.762,308.029,692.782z M375.53,679.041
	c-5.212,1.021-10.244,2.71-15.37,4.008c-5.365,1.358-10.822,2.342-16.954,3.641C349.798,692.231,365.149,688.606,375.53,679.041z
	 M340.211,687.224c-8.543,1.396-16.932,2.766-26.585,4.343C320.588,698.438,338.355,694.839,340.211,687.224z M416.605,565.915
	c4.219,1.608,25.601-5.865,29.128-10.18C440.511,554.61,418.826,562.189,416.605,565.915z M385.901,97.424
	c-10.879-8.317-12.877-9.025-19.172-6.422C373.994,99.3,380.282,101.3,385.901,97.424z M359.821,625.252
	c6.35-1.565,11.45-2.823,18.225-4.493C369.902,616.181,364.256,617.677,359.821,625.252z M403.76,150.005
	c4.437,1.605,8.101,2.931,12.616,4.564C414.031,146.24,410.219,144.852,403.76,150.005z M189.061,692.762
	c2.387,6.229,5.134,6.4,11.057,0C195.611,692.762,192.432,692.762,189.061,692.762z"/>
<g>
</g>
<g>
</g>
<g>
</g>
<g>
</g>
<g>
</g>
<g>
</g>
<g>
</g>
</svg>
