

<svg viewBox="0 0 595 842" version="1.1">
<defs>
<clipPath id="clip1">
  <path d="M 0 704.558594 L 136.011719 704.558594 L 136.011719 841 L 0 841 Z M 0 704.558594 "/>
</clipPath>
</defs>
<g id="surface1">
<g clip-path="url(#clip1)" clip-rule="nonzero">
<path style=" stroke:none;fill-rule:nonzero;fill:rgb(0%,40.974426%,21.980286%);fill-opacity:1;" d="M 0 772.570312 C 0 735.015625 30.445312 704.558594 68 704.558594 C 105.558594 704.558594 136.011719 735.015625 136.011719 772.570312 C 136.011719 810.128906 105.558594 840.574219 68 840.574219 C 30.445312 840.574219 0 810.128906 0 772.570312 "/>
</g>
<path style=" stroke:none;fill-rule:nonzero;fill:rgb(100%,100%,100%);fill-opacity:1;" d="M 2.003906 772.570312 C 2.003906 736.125 31.554688 706.574219 68 706.574219 C 104.453125 706.574219 133.996094 736.125 133.996094 772.570312 C 133.996094 809.015625 104.453125 838.574219 68 838.574219 C 31.554688 838.574219 2.003906 809.015625 2.003906 772.570312 "/>
<path style=" stroke:none;fill-rule:nonzero;fill:rgb(0%,40.974426%,21.980286%);fill-opacity:1;" d="M 4.152344 772.570312 C 4.152344 737.300781 32.738281 708.71875 68 708.71875 C 103.269531 708.71875 131.855469 737.300781 131.855469 772.570312 C 131.855469 807.832031 103.269531 836.417969 68 836.417969 C 32.738281 836.417969 4.152344 807.832031 4.152344 772.570312 "/>
<path style=" stroke:none;fill-rule:nonzero;fill:rgb(100%,100%,100%);fill-opacity:1;" d="M 28.539062 772.304688 C 28.539062 750.578125 46.140625 732.980469 67.867188 732.980469 C 89.570312 732.980469 107.175781 750.578125 107.175781 772.304688 C 107.175781 794.015625 89.570312 811.617188 67.867188 811.617188 C 46.140625 811.617188 28.539062 794.015625 28.539062 772.304688 "/>
<path style=" stroke:none;fill-rule:nonzero;fill:rgb(100%,100%,100%);fill-opacity:1;" d="M 49.816406 719.8125 C 48.898438 720.203125 47.898438 720.613281 47.105469 720.941406 C 47.566406 721.96875 47.945312 722.796875 48.53125 724.089844 L 51.238281 722.945312 C 51.824219 722.542969 51.859375 721.59375 51.589844 720.90625 C 51.207031 720.09375 50.386719 719.628906 49.816406 719.8125 M 47.128906 734.027344 C 45.210938 729.351562 42.859375 723.875 41.125 719.496094 C 43.304688 718.574219 46.199219 717.34375 48.625 716.308594 C 50.863281 715.351562 53.824219 715.386719 55.800781 717.441406 C 56.796875 718.546875 57.195312 720.273438 57.074219 721.347656 C 56.957031 722.308594 56.597656 723.175781 55.894531 724.078125 C 57.476562 725.542969 59.574219 727.496094 61.363281 729.148438 L 56.136719 730.289062 C 54.367188 728.863281 53.40625 728.101562 51.839844 726.8125 C 51.226562 727.074219 50.714844 727.289062 50.082031 727.550781 L 51.980469 731.753906 L 47.128906 734.027344 "/>
<path style=" stroke:none;fill-rule:nonzero;fill:rgb(100%,100%,100%);fill-opacity:1;" d="M 107.984375 728.605469 C 108.921875 729.765625 109.5625 731.203125 109.972656 732.667969 C 108.816406 733.289062 107.925781 733.863281 106.820312 734.492188 C 106.542969 732.777344 105.605469 731.039062 103.925781 730.183594 C 103.117188 729.714844 101.925781 729.628906 101.019531 729.9375 C 99.613281 730.457031 98.394531 731.671875 97.871094 733.082031 C 97.398438 734.4375 97.925781 735.761719 98.691406 736.8125 C 99.773438 738.035156 101.214844 738.667969 102.847656 738.726562 C 102.101562 739.925781 101.628906 740.699219 101.019531 741.621094 C 98.3125 741.234375 95.761719 739.746094 94.21875 737.230469 C 92.898438 735.097656 92.8125 731.839844 93.976562 729.601562 C 95.183594 727.140625 97.585938 725.566406 100.1875 725.207031 C 103.117188 724.890625 106.128906 726.339844 107.984375 728.605469 "/>
<path style=" stroke:none;fill-rule:nonzero;fill:rgb(100%,100%,100%);fill-opacity:1;" d="M 116.265625 738.375 C 114.824219 739.449219 113.007812 740.804688 111.566406 741.871094 C 113.792969 742.128906 116.472656 742.394531 118.789062 742.65625 C 119.632812 744.226562 120.335938 745.527344 121.273438 747.261719 L 112.972656 746.660156 C 111.324219 749.628906 109.722656 752.472656 108.15625 755.304688 C 107.1875 753.890625 106.4375 752.070312 105.496094 750.496094 C 106.558594 748.394531 107.789062 745.9375 108.851562 743.90625 C 107.175781 745.144531 105.472656 746.40625 103.726562 747.710938 L 100.691406 743.652344 C 104.796875 740.59375 113.207031 734.335938 113.207031 734.335938 L 116.265625 738.375 "/>
<path style=" stroke:none;fill-rule:nonzero;fill:rgb(100%,100%,100%);fill-opacity:1;" d="M 16.121094 752.484375 C 14.410156 753.8125 13.1875 755.746094 13.542969 757.960938 C 13.625 758.289062 13.871094 758.820312 14.398438 758.886719 C 15.746094 758.96875 16.363281 757.457031 16.867188 756.460938 C 17.667969 754.882812 19.054688 753.003906 21.007812 752.816406 C 22.707031 752.703125 24.132812 753.144531 25.242188 754.46875 C 26.921875 756.492188 26.617188 759.75 25.824219 762.097656 C 25.074219 763.839844 23.910156 765.609375 22.253906 766.75 L 19.265625 764.921875 C 20.898438 763.785156 22.609375 761.933594 22.835938 759.859375 C 22.835938 759.121094 22.671875 758.121094 21.753906 758.039062 C 20.199219 757.972656 19.660156 760.886719 18.367188 762.179688 C 17.363281 763.207031 16.121094 763.980469 14.546875 763.761719 C 13.078125 763.679688 11.839844 762.757812 10.984375 761.601562 C 9.351562 759.121094 10.152344 755.472656 11.148438 753.5625 C 11.757812 752.484375 12.472656 751.402344 13.46875 750.574219 C 14.304688 751.175781 15.21875 751.851562 16.121094 752.484375 "/>
<path style=" stroke:none;fill-rule:nonzero;fill:rgb(100%,100%,100%);fill-opacity:1;" d="M 124.398438 754.636719 C 125.839844 756.957031 126.390625 760.03125 125.644531 762.847656 L 122.570312 762.679688 C 122.992188 760.824219 123.292969 758.507812 121.992188 756.957031 C 121.605469 756.492188 120.921875 756.210938 120.425781 756.460938 C 118.753906 757.804688 120.496094 760.792969 119.527344 763.234375 C 119.078125 764.40625 118.5625 765.199219 117.183594 765.75 C 115.445312 766.410156 113.289062 766.078125 111.96875 764.753906 C 109.367188 762.039062 108.15625 757.839844 109.800781 754.304688 L 113.042969 754.304688 C 112.496094 755.6875 112.097656 757.644531 112.621094 759.277344 C 112.90625 759.964844 113.242188 760.859375 114.027344 761.101562 C 116.632812 761.394531 115.015625 757.210938 115.492188 755.578125 C 115.800781 754.339844 116.492188 752.929688 117.847656 752.316406 C 120.335938 751.105469 123.238281 752.484375 124.398438 754.636719 "/>
<path style=" stroke:none;fill-rule:nonzero;fill:rgb(100%,100%,100%);fill-opacity:1;" d="M 38.832031 804.878906 C 39.253906 805.664062 39.660156 806.359375 39.945312 807.511719 C 39.019531 807.972656 37.855469 808.546875 36.84375 809.042969 C 36.601562 807.226562 34.988281 805.433594 33.191406 804.964844 C 31.703125 804.585938 30.074219 805.292969 28.972656 806.617188 C 28.058594 807.703125 27.789062 809.253906 28.058594 810.601562 C 28.457031 812.171875 30.742188 813.839844 32.78125 813.894531 L 33.367188 813.910156 C 32.765625 815.132812 32.394531 815.886719 31.867188 816.902344 C 28.539062 816.792969 25.15625 814.828125 23.910156 811.59375 C 22.835938 808.972656 23.308594 805.578125 24.992188 803.390625 C 27.039062 800.789062 30.296875 800.074219 33.453125 800.742188 C 35.714844 801.273438 37.566406 802.921875 38.832031 804.878906 "/>
<path style=" stroke:none;fill-rule:nonzero;fill:rgb(100%,100%,100%);fill-opacity:1;" d="M 45.300781 813.589844 C 44.113281 813.03125 42.769531 813.472656 41.820312 814.246094 C 40.28125 815.769531 39.261719 817.839844 39.875 820.054688 C 40.132812 820.957031 41.011719 821.648438 41.886719 822.003906 C 43.164062 822.472656 44.398438 822.0625 45.386719 821.21875 C 46.898438 819.660156 47.984375 817.515625 47.042969 815.332031 C 46.820312 814.605469 46.019531 813.808594 45.300781 813.589844 M 50.527344 813.332031 C 52.214844 815.496094 52.242188 818.839844 51.191406 821.292969 C 50.011719 823.796875 47.761719 825.390625 45.300781 825.949219 C 42.320312 826.410156 39.496094 825.445312 37.34375 823.371094 C 35.441406 821.265625 34.382812 818.253906 35.359375 815.332031 C 36.210938 812.152344 39.308594 809.832031 42.484375 809.441406 C 45.777344 809.253906 48.816406 810.765625 50.527344 813.332031 "/>
<path style=" stroke:none;fill-rule:nonzero;fill:rgb(100%,100%,100%);fill-opacity:1;" d="M 80.046875 818.839844 C 77.722656 819.167969 75.515625 819.4375 73.304688 819.800781 C 73.386719 820.835938 73.457031 821.695312 73.519531 822.5625 C 75.59375 822.269531 77.449219 822.003906 79.378906 821.722656 L 79.972656 825.386719 C 78.050781 825.660156 75.78125 825.984375 73.808594 826.269531 C 73.914062 827.863281 74.066406 829.90625 74.210938 831.671875 C 72.554688 831.8125 70.878906 831.90625 69.191406 832.015625 L 68.175781 816.414062 C 71.914062 816.058594 75.847656 815.554688 79.425781 814.964844 C 79.613281 816.140625 79.804688 817.332031 80.046875 818.839844 "/>
<path style=" stroke:none;fill-rule:nonzero;fill:rgb(100%,100%,100%);fill-opacity:1;" d="M 92.898438 812.308594 L 86.90625 815.226562 L 87.953125 817.6875 C 89.789062 816.832031 91.355469 816.128906 93.21875 815.261719 C 93.621094 816.152344 94.082031 817.1875 94.542969 818.214844 C 92.828125 819.023438 91.023438 819.789062 89.242188 820.625 C 89.597656 821.449219 89.839844 822.003906 90.40625 823.316406 L 96.917969 820.304688 L 98.332031 823.492188 C 94.574219 825.222656 90.472656 827.085938 86.921875 828.65625 L 81.324219 814.410156 C 84.875 812.863281 88.222656 811.257812 91.609375 809.476562 C 92.023438 810.34375 92.898438 812.308594 92.898438 812.308594 "/>
<path style=" stroke:none;fill-rule:nonzero;fill:rgb(100%,100%,100%);fill-opacity:1;" d="M 65.945312 820.257812 C 63.632812 819.867188 61.445312 819.449219 59.21875 819.128906 C 58.964844 820.195312 58.75 821.363281 58.550781 822.171875 C 60.59375 822.539062 62.253906 822.804688 64.390625 823.171875 L 63.859375 826.726562 C 61.871094 826.394531 59.773438 826.074219 57.707031 825.695312 C 57.308594 827.289062 56.921875 829.136719 56.488281 830.882812 C 54.898438 830.5 53.324219 830.085938 51.605469 829.65625 L 55.375 814.339844 C 59.046875 815.140625 62.824219 815.832031 66.40625 816.367188 C 66.261719 817.539062 66.101562 818.875 65.945312 820.257812 "/>
<path style=" stroke:none;fill-rule:nonzero;fill:rgb(13.729858%,12.159729%,12.548828%);fill-opacity:1;" d="M 111.339844 836.558594 C 112.128906 836.558594 113.359375 836.695312 113.359375 835.53125 C 113.359375 834.652344 112.589844 834.539062 111.894531 834.539062 L 110.28125 834.539062 L 110.28125 836.558594 Z M 113.984375 839.75 L 113.160156 839.75 L 111.542969 837.109375 L 110.28125 837.109375 L 110.28125 839.75 L 109.589844 839.75 L 109.589844 834.039062 L 112.050781 834.039062 C 112.527344 834.039062 113.007812 834.058594 113.433594 834.320312 C 113.851562 834.5625 114.0625 835.058594 114.0625 835.550781 C 114.0625 836.671875 113.277344 837.082031 112.269531 837.109375 Z M 115.902344 836.886719 C 115.902344 834.40625 113.910156 832.402344 111.464844 832.402344 C 109.003906 832.402344 107.011719 834.40625 107.011719 836.886719 C 107.011719 839.390625 109.003906 841.386719 111.464844 841.386719 C 113.910156 841.386719 115.902344 839.390625 115.902344 836.886719 M 106.398438 836.886719 C 106.398438 834.074219 108.664062 831.789062 111.464844 831.789062 C 114.261719 831.789062 116.503906 834.074219 116.503906 836.886719 C 116.503906 839.714844 114.261719 842 111.464844 842 C 108.664062 842 106.398438 839.714844 106.398438 836.886719 "/>
<path style=" stroke:none;fill-rule:nonzero;fill:rgb(100%,100%,100%);fill-opacity:1;" d="M 21.730469 735.410156 L 25.035156 737.347656 L 22.574219 741.328125 L 32.148438 747.609375 L 29.632812 751.738281 L 19.898438 745.6875 L 17.574219 749.472656 L 14.375 747.34375 L 21.730469 735.410156 "/>
<path style=" stroke:none;fill-rule:nonzero;fill:rgb(100%,100%,100%);fill-opacity:1;" d="M 26.476562 730.269531 L 32.382812 725.28125 L 46.695312 734.265625 L 42.574219 736.988281 L 39.425781 735.332031 L 35.4375 738.820312 L 36.816406 742.136719 L 33.207031 746.167969 Z M 31.703125 730.515625 L 33.765625 735.273438 L 36.109375 733.207031 L 31.703125 730.515625 "/>
<path style=" stroke:none;fill-rule:nonzero;fill:rgb(100%,100%,100%);fill-opacity:1;" d="M 69.523438 722.320312 C 68.914062 722.3125 67.390625 722.320312 66.722656 722.320312 C 66.769531 723.269531 66.796875 724.542969 66.847656 725.449219 C 67.621094 725.449219 68.875 725.441406 69.660156 725.441406 C 70.671875 725.371094 70.691406 724.269531 70.699219 723.890625 C 70.65625 723.402344 70.539062 722.460938 69.523438 722.320312 M 69.257812 716.476562 C 68.640625 716.472656 67.117188 716.476562 66.449219 716.476562 C 66.496094 717.410156 66.53125 718.503906 66.582031 719.410156 C 67.34375 719.410156 68.605469 719.410156 69.382812 719.410156 C 70.402344 719.339844 70.414062 718.320312 70.421875 717.953125 C 70.378906 717.460938 70.269531 716.613281 69.257812 716.476562 M 74.285156 714.367188 C 75.367188 715.332031 75.59375 716.914062 75.402344 717.996094 C 75.179688 718.980469 74.539062 719.953125 73.660156 720.640625 C 74.738281 721.449219 75.78125 722.15625 76.023438 723.707031 C 76.304688 725.195312 75.863281 726.398438 75.066406 727.445312 C 73.386719 729.351562 70.824219 729.027344 68.398438 729.105469 L 61.84375 729.105469 L 61.800781 728.515625 L 61.128906 713.578125 C 64.566406 713.578125 65.535156 713.570312 68.699219 713.570312 C 72.941406 713.570312 73.519531 713.828125 74.285156 714.367188 "/>
<path style=" stroke:none;fill-rule:nonzero;fill:rgb(100%,100%,100%);fill-opacity:1;" d="M 64.828125 750.761719 C 66.53125 750.914062 68.808594 750.9375 70.628906 750.738281 L 67.695312 748.582031 C 67.695312 748.582031 65.691406 750.117188 64.828125 750.761719 "/>
<path style="fill:none;stroke-width:1.2;stroke-linecap:square;stroke-linejoin:miter;stroke:rgb(100%,100%,100%);stroke-opacity:1;stroke-miterlimit:2;" d="M 648.28125 912.382812 C 665.3125 910.859375 688.085938 910.625 706.289062 912.617188 L 676.953125 934.179688 C 676.953125 934.179688 656.914062 918.828125 648.28125 912.382812 Z M 648.28125 912.382812 " transform="matrix(0.1,0,0,-0.1,0,842)"/>
<path style=" stroke:none;fill-rule:nonzero;fill:rgb(100%,100%,100%);fill-opacity:1;" d="M 116.3125 783.257812 L 111.390625 783.257812 L 115.234375 786.351562 L 113.867188 791.0625 L 118.152344 788.421875 L 122.453125 791.0625 L 121.0625 786.34375 L 124.882812 783.257812 L 119.988281 783.257812 L 118.152344 778.699219 L 116.3125 783.257812 "/>
<path style=" stroke:none;fill-rule:nonzero;fill:rgb(100%,100%,100%);fill-opacity:1;" d="M 15.828125 783.257812 L 10.882812 783.257812 L 14.75 786.351562 L 13.375 791.0625 L 17.65625 788.421875 L 21.957031 791.0625 L 20.574219 786.34375 L 24.398438 783.257812 L 19.492188 783.257812 L 17.65625 778.699219 L 15.828125 783.257812 "/>
<path style=" stroke:none;fill-rule:nonzero;fill:rgb(100%,100%,100%);fill-opacity:1;" d="M 103.578125 803.398438 L 98.621094 807.859375 L 100.308594 809.929688 C 101.847656 808.609375 103.148438 807.503906 104.710938 806.15625 C 105.347656 806.898438 106.066406 807.761719 106.789062 808.628906 C 105.355469 809.871094 103.84375 811.117188 102.355469 812.402344 C 102.921875 813.09375 103.308594 813.574219 104.222656 814.675781 L 109.660156 809.972656 L 111.894531 812.652344 C 108.757812 815.367188 105.332031 818.277344 102.339844 820.769531 L 93.003906 808.605469 C 96.003906 806.132812 98.789062 803.683594 101.5625 801.039062 C 102.199219 801.75 103.578125 803.398438 103.578125 803.398438 "/>
<path style=" stroke:none;fill-rule:nonzero;fill:rgb(100%,100%,100%);fill-opacity:1;" d="M 82.898438 725.019531 C 82.339844 726.433594 82.121094 727.492188 84.480469 728.253906 C 85.765625 728.671875 86.550781 728.078125 87.097656 726.660156 L 90.632812 718.023438 L 95.585938 720.203125 L 92.277344 728.53125 C 90.457031 733.261719 87.644531 733.875 82.808594 732.074219 C 77.414062 730.054688 76.132812 727.585938 77.78125 723.296875 L 80.875 714.714844 L 86.0625 716.425781 L 82.898438 725.019531 "/>
<path style=" stroke:none;fill-rule:nonzero;fill:rgb(13.729858%,12.159729%,12.548828%);fill-opacity:1;" d="M 64.542969 750.996094 C 64.121094 751.269531 64.566406 751.605469 64.789062 751.816406 C 66.585938 751.683594 68.925781 751.515625 71.007812 751.738281 L 71.421875 751.328125 C 70.375 750.296875 68.992188 749.328125 67.691406 748.582031 Z M 66.371094 767.742188 C 66.417969 767.964844 66.230469 768.285156 66.53125 768.398438 C 67.410156 768.207031 69.019531 768.871094 69.507812 767.820312 C 68.832031 767.050781 67.246094 767.132812 66.371094 767.742188 Z M 83.691406 759.277344 C 83.832031 758.453125 85.132812 758.3125 86.011719 758.207031 C 88.523438 758.03125 90.632812 758.980469 92.640625 760.03125 C 92.847656 758.957031 93.195312 758.101562 93.476562 757.125 C 94.140625 755.496094 95.441406 753.835938 97.128906 753.144531 C 97.554688 753 97.726562 753.402344 97.613281 753.972656 C 96.539062 759.613281 100.414062 763.585938 103.007812 767.898438 C 100.023438 769.894531 97.203125 766.828125 94.386719 766.078125 C 93.148438 765.800781 91.679688 765.71875 90.488281 765.90625 C 88.777344 763.253906 86.480469 760.769531 83.691406 759.277344 Z M 81.699219 757.792969 C 78.90625 756.730469 76.039062 755.472656 72.914062 754.972656 C 66.253906 753.835938 59.84375 755.304688 54.335938 757.960938 C 53.875 755.167969 52.515625 752.730469 50.863281 750.414062 C 51.625 749.941406 53.15625 750.574219 54.089844 750.90625 C 55.058594 751.261719 55.753906 751.578125 56.585938 751.902344 C 56.75 750.246094 55.777344 748.617188 55.089844 747.097656 C 55.707031 746.742188 56.300781 747.015625 56.832031 747.175781 C 59.011719 748.011719 60.96875 749.308594 62.957031 750.496094 L 62.949219 750.472656 L 64.773438 746.019531 L 61.382812 742.949219 C 61 742.605469 60.96875 742.617188 61.257812 742.597656 C 61.699219 742.570312 65.863281 742.359375 65.863281 742.359375 C 65.863281 742.359375 67.816406 738.132812 67.832031 738.085938 C 67.847656 738.039062 67.878906 738.085938 67.878906 738.085938 L 69.851562 742.277344 C 69.851562 742.277344 74.453125 742.535156 74.582031 742.539062 C 74.707031 742.546875 74.582031 742.652344 74.582031 742.652344 L 70.9375 746.109375 L 72.671875 750.308594 L 72.664062 750.316406 C 75.179688 748.863281 77.652344 747.007812 80.699219 746.8125 C 80.539062 747.726562 79.332031 749.996094 79.304688 751.738281 C 80.894531 751.066406 82.882812 750.050781 84.941406 750.164062 C 83.957031 751.855469 81.8125 754.863281 81.699219 757.792969 Z M 74.480469 763.429688 C 73.4375 763.019531 71.980469 762.433594 70.917969 763.253906 C 70.316406 761.957031 72.003906 762.234375 72.582031 761.851562 C 73.4375 761.828125 74.441406 761.800781 74.816406 762.519531 C 74.851562 762.683594 74.875 763.234375 74.480469 763.429688 Z M 74.59375 759.074219 C 74.746094 759.414062 75.125 760 74.816406 760.527344 C 73.1875 760.03125 70.664062 760.386719 69.765625 760.933594 C 68.351562 761.988281 68.574219 764.148438 68.925781 765.667969 L 69.355469 765.992188 C 70.046875 765.835938 70.066406 764.957031 70.679688 764.753906 C 71.699219 765 73.105469 765.363281 74.070312 764.753906 C 74.925781 764.78125 75.078125 766.011719 74.992188 766.574219 C 74.371094 769.785156 73.027344 773.261719 69.765625 774.796875 C 68.40625 775.449219 66.128906 774.976562 65.371094 774.53125 C 62.15625 772.628906 60.367188 768.84375 60.722656 765.421875 C 60.800781 764.929688 61.355469 764.476562 61.964844 764.839844 C 63.265625 765.71875 64.679688 764.148438 65.863281 765.253906 C 67.304688 764.613281 66.449219 762.847656 66.449219 761.519531 C 65.285156 760.03125 63.296875 760.246094 61.558594 760.359375 C 60.742188 760.070312 61.539062 759.074219 61.800781 758.613281 C 63.675781 755.96875 67.273438 755.910156 70.421875 756.304688 C 71.878906 756.492188 73.6875 757.46875 74.59375 759.074219 Z M 61.558594 761.851562 C 62.855469 761.546875 64.308594 761.933594 64.953125 762.933594 L 64.953125 763.265625 C 64.011719 763.179688 62.488281 762.234375 61.632812 763.429688 C 61.085938 763.679688 61.035156 763.066406 61.015625 762.683594 C 61 762.195312 61.191406 761.933594 61.558594 761.851562 Z M 49.609375 761.027344 C 48.207031 762.410156 46.484375 764.089844 45.472656 765.835938 C 42.019531 765.144531 39.25 767.160156 36.347656 768.320312 C 35.359375 768.632812 33.78125 768.65625 32.871094 767.898438 C 35.605469 763.398438 39.472656 759.246094 38.5 753.316406 C 38.390625 752.601562 39.332031 753.226562 39.664062 753.390625 C 41.796875 755.054688 42.816406 757.347656 43.066406 759.859375 C 45.742188 758.839844 49.394531 757.066406 52.269531 758.945312 C 51.382812 759.621094 50.46875 760.28125 49.609375 761.027344 Z M 104.335938 773.707031 C 100.050781 775.394531 97.238281 771.109375 93.132812 771.144531 C 92.617188 770.527344 92.488281 769.785156 92.230469 769.066406 C 96.839844 767.574219 99.882812 774.226562 104.414062 770.800781 C 104.066406 765.199219 102.867188 759.925781 100.28125 755.21875 C 97.5625 749.863281 92.5625 744.574219 87.335938 741.378906 C 77.503906 734.40625 61.472656 733.910156 51.015625 739.878906 C 39.332031 745.832031 32.289062 757.902344 31.375 770.394531 C 31.375 770.394531 31.261719 770.808594 31.703125 771.058594 C 36.140625 773.4375 38.949219 768.226562 43.234375 768.824219 C 44.339844 769.070312 43.351562 770.003906 43.066406 770.640625 C 42.730469 771.472656 41.527344 771 40.832031 771.308594 C 37.902344 772.570312 34.890625 775.027344 31.460938 773.707031 C 31.460938 773.707031 31.484375 773.957031 31.507812 774.324219 C 31.578125 775.273438 31.703125 776.941406 31.703125 776.941406 C 35.546875 778.15625 38.035156 774.152344 41.652344 774.621094 C 41.574219 775.429688 41.519531 776.285156 41.082031 776.859375 C 37.757812 777.023438 35.679688 780.144531 32.203125 779.929688 L 32.871094 782.570312 C 35.792969 782.972656 37.820312 779.792969 40.832031 780.089844 L 40.746094 782.078125 C 38.09375 782.332031 36.378906 784.820312 33.699219 784.980469 C 34.058594 791.121094 38.3125 784.046875 40.988281 785.230469 C 41.101562 785.890625 41.5 786.53125 41.242188 787.222656 C 39.089844 787.1875 37.726562 789.074219 35.855469 789.707031 C 36.179688 790.480469 36.40625 791.585938 37.269531 791.871094 C 38.863281 791.199219 40.164062 789.792969 42.066406 789.878906 C 41.84375 789.160156 41.734375 788.300781 41.734375 787.558594 C 44.140625 788.183594 45.519531 786.308594 47.210938 785.230469 C 47.597656 781.832031 49.972656 779.238281 51.4375 776.285156 C 51.699219 775.679688 51.660156 774.953125 51.636719 774.324219 C 51.554688 770.722656 49.636719 767.148438 51.050781 763.488281 C 51.589844 762.0625 52.539062 760.113281 54.089844 759.699219 C 51.238281 763.101562 51.746094 768.296875 53.261719 772.128906 C 53.433594 772.558594 53.683594 773.636719 53.648438 774.324219 C 53.527344 777.355469 50.695312 779.671875 49.609375 782.414062 C 48.265625 785.152344 49.503906 788.277344 51.015625 790.53125 C 48.839844 792.21875 45.980469 794.933594 43.976562 794.4375 C 43.175781 794.050781 43.140625 792.941406 42.730469 792.199219 C 41.042969 791.871094 39.6875 793.019531 38.339844 793.851562 L 39.921875 795.839844 C 41.082031 795.292969 42.789062 793.957031 43.730469 794.929688 C 45.695312 797.25 41.820312 796.09375 41.324219 797.507812 C 41.875 798.25 42.542969 798.800781 43.234375 799.417969 C 44.03125 799.160156 44.960938 798.40625 45.632812 798.660156 C 45.851562 798.75 46.460938 799.605469 46.632812 800.160156 L 45.140625 801.0625 C 46.214844 802.167969 47.574219 803.226562 48.871094 803.722656 C 49.640625 801.121094 51.675781 799.023438 52.679688 796.597656 C 53.09375 795.347656 53.171875 794.40625 53.183594 793.609375 C 55.96875 797.941406 50.113281 800.523438 50.113281 804.632812 C 50.714844 805.191406 51.460938 805.492188 52.191406 805.789062 C 52.082031 802.558594 54.78125 800.488281 55.914062 797.753906 C 57.988281 793.417969 53.210938 790.707031 51.695312 787.222656 C 50.253906 784.066406 52.269531 781.113281 54.261719 778.757812 C 55.648438 777.273438 56.011719 775.796875 55.882812 774.324219 C 55.609375 771 53.03125 767.859375 53.945312 763.933594 C 54.519531 761.527344 55.660156 758.839844 58.070312 757.871094 C 56.324219 759.890625 55.421875 762.234375 55.25 764.921875 C 54.992188 768.90625 57.691406 771.09375 57.847656 774.324219 C 57.882812 774.976562 57.882812 775.644531 57.578125 776.359375 C 56.230469 779.296875 53.148438 781.5 53.183594 784.980469 C 52.824219 789.578125 58.8125 791.3125 58.148438 796.015625 C 58.097656 800.101562 53.40625 802.371094 54.421875 806.789062 L 56.992188 807.617188 C 55.539062 802.644531 60.699219 799.882812 60.722656 795.433594 C 60.976562 791.675781 56.933594 789.707031 55.914062 786.472656 C 54.839844 783.269531 57.191406 780.703125 58.988281 778.261719 C 59.871094 776.890625 60.082031 775.597656 59.933594 774.324219 C 59.574219 771.195312 57.039062 768.261719 57.160156 764.839844 C 57.101562 761.683594 58.480469 758.59375 61.222656 757.125 C 60.394531 758.3125 59.449219 759.445312 58.988281 760.769531 C 57.269531 765.421875 60.144531 769.394531 61.558594 773.378906 C 61.667969 773.707031 61.738281 774.027344 61.777344 774.324219 C 62.316406 778.015625 58.539062 780.375 57.832031 783.746094 C 56.847656 787.828125 61.257812 789.707031 62.222656 793.113281 C 64.285156 798.660156 57.578125 801.90625 59.148438 807.457031 C 59.527344 808.890625 61.035156 808.726562 62.054688 808.777344 C 59.558594 804.191406 63.570312 800.40625 64.789062 796.429688 C 66.144531 792.167969 62.082031 789.765625 60.394531 786.472656 C 58.621094 782.769531 62.664062 780.476562 63.542969 777.355469 C 64.285156 775.222656 66.074219 776.996094 67.484375 776.996094 C 69.238281 776.996094 71.597656 775.394531 72.003906 776.769531 C 72.695312 779.601562 75.953125 781.335938 75.980469 784.398438 C 75.863281 789.152344 68.992188 791.640625 71.171875 796.839844 C 72.964844 800.460938 76.039062 804.601562 73.996094 808.777344 L 76.554688 808.203125 C 78.273438 803.917969 74.996094 800.488281 73.574219 797.171875 C 72.195312 793.222656 75.660156 790.265625 77.722656 787.222656 C 79.804688 783.746094 76.53125 780.53125 74.738281 777.691406 C 74.117188 776.523438 73.996094 775.398438 74.136719 774.324219 C 74.460938 772.046875 76.015625 769.945312 76.726562 767.820312 C 78.242188 764.199219 77.394531 759.699219 74.570312 756.957031 L 74.652344 756.878906 C 76.0625 757.710938 77.339844 759.171875 77.972656 760.613281 C 80.398438 765.480469 76.925781 769.785156 76.070312 774.324219 C 76.023438 774.550781 75.988281 775.046875 75.972656 775.222656 C 76.070312 777.753906 78.523438 779.601562 79.789062 782.164062 C 81.921875 786.308594 78.160156 789.246094 76.0625 792.363281 C 72.664062 798.195312 80.789062 801.625 79.128906 807.457031 L 81.613281 806.617188 C 82.257812 803.488281 79.847656 800.980469 78.382812 798.414062 C 76.292969 794.160156 80.046875 790.875 82.195312 787.640625 C 84.3125 783.960938 80.789062 780.199219 78.882812 777.117188 C 78.277344 776.214844 78.082031 775.273438 78.125 774.324219 C 78.238281 772.515625 79.332031 770.757812 79.964844 769.152344 C 81.394531 765.273438 80.398438 760.578125 77.886719 757.710938 C 79.566406 758.398438 80.933594 760.269531 81.472656 761.847656 C 83.113281 766.070312 80.949219 770.070312 80.148438 773.9375 C 80.136719 774.058594 80.113281 774.238281 80.113281 774.320312 C 79.996094 777.871094 83.609375 780.089844 84.601562 783.414062 C 85.574219 786.832031 83.039062 789.355469 81.207031 791.695312 C 76.519531 797.683594 83.945312 800.601562 83.863281 805.632812 C 84.578125 805.324219 85.515625 805.191406 85.921875 804.46875 C 85.574219 801.671875 83.195312 799.714844 82.195312 797.171875 C 81.804688 795.894531 81.863281 794.460938 82.691406 793.519531 L 82.859375 793.6875 C 82.554688 797.753906 86.097656 800.21875 87.179688 803.722656 C 87.945312 803.367188 89.550781 802.257812 90.742188 801.15625 C 90.40625 800.859375 89.773438 800.460938 89.253906 800.238281 C 88.964844 799.628906 89.773438 799.046875 90.15625 798.496094 L 92.488281 799.324219 C 93.167969 798.691406 93.753906 798.195312 94.386719 797.371094 C 93.558594 796.789062 92.5625 796.339844 91.566406 796.183594 C 91.539062 795.542969 91.898438 795.039062 92.3125 794.601562 C 93.71875 794.539062 94.832031 795.207031 95.960938 795.765625 C 96.394531 795.347656 97.191406 794.484375 97.523438 793.746094 L 94.464844 792.199219 C 92.320312 791.089844 92.972656 793.714844 91.976562 794.347656 C 89.191406 794.242188 87.203125 792.28125 85.097656 790.53125 C 85.238281 789.601562 86.257812 788.335938 86.679688 787.066406 C 87.886719 782.992188 84.65625 779.929688 82.859375 776.695312 C 82.410156 775.902344 82.246094 775.117188 82.246094 774.324219 C 82.265625 772.128906 83.503906 769.945312 83.769531 767.644531 C 84.148438 764.636719 83.003906 761.851562 81.863281 759.445312 C 82.648438 759.925781 83.3125 760.246094 83.945312 761.351562 C 85.492188 764.394531 85.992188 768.3125 84.515625 771.882812 C 84.074219 772.960938 84.054688 773.566406 84.101562 774.324219 C 84.335938 778.140625 88.621094 780.828125 88.667969 784.902344 C 90.324219 786.140625 91.820312 788.21875 94.050781 787.558594 C 94.21875 788.351562 93.824219 789.011719 93.8125 789.953125 C 95.796875 789.847656 97.128906 791.339844 98.859375 791.871094 C 99.273438 791.148438 100 790.429688 99.949219 789.621094 C 97.984375 789.039062 96.570312 787.113281 94.386719 787.066406 L 94.808594 785.152344 C 97.09375 785.101562 98.855469 787.054688 101.007812 787.578125 C 101.667969 786.9375 101.925781 785.976562 102.179688 785.066406 C 99.535156 784.652344 97.613281 782.414062 94.964844 781.996094 C 94.988281 781.164062 94.738281 780.511719 95.035156 779.957031 C 97.554688 779.957031 98.664062 781.691406 101.582031 782.605469 C 103.386719 783.085938 103.578125 780.785156 103.703125 780.027344 C 100.199219 780.164062 97.949219 776.882812 94.550781 776.769531 L 94.140625 774.703125 C 97.820312 774.105469 100.40625 778.09375 104.1875 777.015625 C 104.316406 775.90625 104.363281 775.265625 104.335938 774.324219 C 104.34375 774.175781 104.328125 773.921875 104.335938 773.707031 Z M 64.867188 769.972656 L 64.953125 770.476562 C 66.03125 771.195312 66.371094 772.410156 67.867188 772.304688 C 69.1875 772.382812 70.175781 771.144531 70.839844 770.140625 C 69.042969 769.894531 66.867188 770.277344 64.867188 769.972656 "/>
</g>
</svg>
